<svg id="Layer_1" data-name="Layer 1" xmlns="http://www.w3.org/2000/svg" viewBox="0 0 96 77.08"><title>crowd</title><path d="M27.47,75.28V54.49a13.62,13.62,0,0,1,.13-1.91,12.18,12.18,0,0,0-4.29-2.66,18.52,18.52,0,0,0-.57,4.57V75.28A19.05,19.05,0,0,0,23,78.2h4.8A14.33,14.33,0,0,1,27.47,75.28ZM71,50a18.65,18.65,0,0,0-1.41-3.82A18.84,18.84,0,0,0,52.71,35.67H41.55A18.84,18.84,0,0,0,24.72,46.09a18.65,18.65,0,0,0-1.41,3.82,19.15,19.15,0,0,0-.57,4.58V75.28A19.05,19.05,0,0,0,23,78.2h4.8a14.33,14.33,0,0,1-.3-2.92V54.49a13.62,13.62,0,0,1,.13-1.91,13.79,13.79,0,0,1,1.29-4.24A14.13,14.13,0,0,1,41.57,40.4H52.72a14.1,14.1,0,0,1,14,12.3h0a13.34,13.34,0,0,1,.11,1.79V75.28a14.34,14.34,0,0,1-.31,2.92h4.8a19.05,19.05,0,0,0,.23-2.92V54.49A19.17,19.17,0,0,0,71,50Z" transform="translate(0 -1.11)"/><path d="M48.26,34.58A16.74,16.74,0,1,1,65,17.85,16.74,16.74,0,0,1,48.26,34.58Zm0-29.12A12.39,12.39,0,1,0,60.65,17.85h0A12.41,12.41,0,0,0,48.26,5.46Z" transform="translate(0 -1.11)"/><path d="M24.72,46.1a16,16,0,0,0-5.52-1H9.58A16,16,0,0,0,0,48.27v5.62A12.12,12.12,0,0,1,9.58,49.2H19.2a12.13,12.13,0,0,1,8.4,3.38,14,14,0,0,1,1.28-4.24A16.08,16.08,0,0,0,24.72,46.1Z" transform="translate(0 -1.11)"/><path d="M15.37,44A14.43,14.43,0,1,1,29.8,29.61h0A14.45,14.45,0,0,1,15.37,44Zm0-25.11A10.68,10.68,0,1,0,26.05,29.61h0A10.7,10.7,0,0,0,15.37,18.93Z" transform="translate(0 -1.11)"/><path d="M84.81,45.13H75.19a16.13,16.13,0,0,0-9.78,3.28,14,14,0,0,1,1.26,4.28,12.12,12.12,0,0,1,8.52-3.49h9.62A12.15,12.15,0,0,1,96,56.63v-7A16.1,16.1,0,0,0,84.81,45.13Z" transform="translate(0 -1.11)"/><path d="M81,44A14.43,14.43,0,1,1,95.41,29.61h0A14.45,14.45,0,0,1,81,44Zm0-25.11A10.68,10.68,0,1,0,91.66,29.61h0A10.7,10.7,0,0,0,81,18.93Z" transform="translate(0 -1.11)"/></svg>