<svg id="Layer_1" data-name="Layer 1" xmlns="http://www.w3.org/2000/svg" viewBox="0 0 91.88 25.87"><title>fifty</title><path d="M16.1,16.4v2.8l-9,.08-.72,6.37c.3,0,.65-.1,1-.14s.79-.05,1.23-.05a11.79,11.79,0,0,1,2.9.38,7.84,7.84,0,0,1,2.66,1.25,6.64,6.64,0,0,1,2,2.26A7.11,7.11,0,0,1,17,32.79,8.58,8.58,0,0,1,16.37,36a7.19,7.19,0,0,1-1.83,2.61,8.69,8.69,0,0,1-3,1.75A12.4,12.4,0,0,1,7.42,41a12.76,12.76,0,0,1-2.76-.31,10.89,10.89,0,0,1-2.53-.84l.76-2.73A10.58,10.58,0,0,0,5,37.89a8.93,8.93,0,0,0,2.38.31,6.85,6.85,0,0,0,4.51-1.33,4.86,4.86,0,0,0,1.59-4A5.17,5.17,0,0,0,13,30.7a4.31,4.31,0,0,0-1.23-1.56,5.59,5.59,0,0,0-1.86-.92,8.71,8.71,0,0,0-2.34-.31,16.86,16.86,0,0,0-2.11.14q-1.08.14-2.19.36L4.47,16.48Z" transform="translate(-2.13 -16.13)"/><path d="M30.6,16.13a9.83,9.83,0,0,1,3.73.71,7.84,7.84,0,0,1,3,2.21,10.83,10.83,0,0,1,2,3.85A20,20,0,0,1,40,28.57a18.48,18.48,0,0,1-.77,5.66,11.09,11.09,0,0,1-2.07,3.85,8.07,8.07,0,0,1-3,2.21A9.14,9.14,0,0,1,30.6,41a9.73,9.73,0,0,1-3.74-.71,7.67,7.67,0,0,1-3-2.21,10.51,10.51,0,0,1-2-3.85,20,20,0,0,1-.71-5.66A17.7,17.7,0,0,1,22,23.08,11.8,11.8,0,0,1,24,19.18a8.22,8.22,0,0,1,3-2.3A8.85,8.85,0,0,1,30.6,16.13ZM24.73,28.57a20.1,20.1,0,0,0,.5,4.93,8.67,8.67,0,0,0,1.3,3A4.21,4.21,0,0,0,28.42,38a6.19,6.19,0,0,0,2.22.4,5.77,5.77,0,0,0,2.21-.44,4.42,4.42,0,0,0,1.86-1.57,9,9,0,0,0,1.28-3,19.63,19.63,0,0,0,.48-4.75A20.24,20.24,0,0,0,36,23.65a8.7,8.7,0,0,0-1.31-3,4.18,4.18,0,0,0-1.88-1.48,6.28,6.28,0,0,0-2.23-.4,5.72,5.72,0,0,0-2.2.44,4.3,4.3,0,0,0-1.86,1.57,9,9,0,0,0-1.29,3A19.66,19.66,0,0,0,24.73,28.57Z" transform="translate(-2.13 -16.13)"/><path d="M70.1,17.4v2.8l-8.95.08-.72,6.37c.3,0,.65-.1,1-.14s.79-.05,1.23-.05a11.79,11.79,0,0,1,2.9.38,7.84,7.84,0,0,1,2.66,1.25,6.64,6.64,0,0,1,2,2.26A7.11,7.11,0,0,1,71,33.79,8.58,8.58,0,0,1,70.37,37a7.19,7.19,0,0,1-1.83,2.61,8.69,8.69,0,0,1-3,1.75,12.4,12.4,0,0,1-4.13.63,12.76,12.76,0,0,1-2.76-.31,10.89,10.89,0,0,1-2.53-.84l.76-2.73a10.58,10.58,0,0,0,2.08.77,8.93,8.93,0,0,0,2.38.31,6.85,6.85,0,0,0,4.51-1.33,4.86,4.86,0,0,0,1.59-4A5.17,5.17,0,0,0,67,31.7a4.31,4.31,0,0,0-1.23-1.56,5.59,5.59,0,0,0-1.86-.92,8.71,8.71,0,0,0-2.34-.31,16.86,16.86,0,0,0-2.11.14q-1.08.14-2.19.36l1.19-11.93Z" transform="translate(-2.13 -16.13)"/><path d="M84.6,17.13a9.83,9.83,0,0,1,3.73.71,7.84,7.84,0,0,1,3,2.21,10.83,10.83,0,0,1,2,3.85A20,20,0,0,1,94,29.57a18.48,18.48,0,0,1-.77,5.66,11.09,11.09,0,0,1-2.07,3.85,8.07,8.07,0,0,1-3,2.21A9.14,9.14,0,0,1,84.6,42a9.73,9.73,0,0,1-3.74-.71,7.67,7.67,0,0,1-3-2.21,10.51,10.51,0,0,1-2-3.85,20,20,0,0,1-.71-5.66A17.7,17.7,0,0,1,76,24.08a11.8,11.8,0,0,1,2-3.9,8.22,8.22,0,0,1,3-2.3A8.85,8.85,0,0,1,84.6,17.13ZM78.73,29.57a20.1,20.1,0,0,0,.5,4.93,8.67,8.67,0,0,0,1.3,3A4.21,4.21,0,0,0,82.42,39a6.19,6.19,0,0,0,2.22.4,5.77,5.77,0,0,0,2.21-.44,4.42,4.42,0,0,0,1.86-1.57,9,9,0,0,0,1.28-3,19.63,19.63,0,0,0,.48-4.75A20.24,20.24,0,0,0,90,24.65a8.7,8.7,0,0,0-1.31-3,4.18,4.18,0,0,0-1.88-1.48,6.28,6.28,0,0,0-2.23-.4,5.72,5.72,0,0,0-2.2.44,4.3,4.3,0,0,0-1.86,1.57,9,9,0,0,0-1.29,3A19.66,19.66,0,0,0,78.73,29.57Z" transform="translate(-2.13 -16.13)"/><path d="M46,23.32a2.15,2.15,0,0,1,.64-1.58,2.1,2.1,0,0,1,1.55-.65,2,2,0,0,1,1.53.65,2.18,2.18,0,0,1,.63,1.58A2.21,2.21,0,0,1,49.76,25a2.15,2.15,0,0,1-1.53.61A2.23,2.23,0,0,1,46.68,25,2.18,2.18,0,0,1,46,23.32Zm0,10.84a2.2,2.2,0,0,1,2.19-2.24,2.06,2.06,0,0,1,1.53.65,2.4,2.4,0,0,1,0,3.24,2.1,2.1,0,0,1-1.53.61A2.14,2.14,0,0,1,46,34.16Z" transform="translate(-2.13 -16.13)"/></svg>