<svg id="Objects" xmlns="http://www.w3.org/2000/svg" viewBox="0 0 431.57 336.41"><defs><style>.cls-1{fill:#dbb14c;}.cls-2{fill:#fff;}.cls-3{fill:#939598;}.cls-4{fill:#f4e6bd;}.cls-5{fill:#2b929a;}.cls-6{fill:#956907;}.cls-7{fill:#6fb454;}.cls-8{fill:#fbd000;}.cls-9{fill:#7bd3f7;}.cls-10{fill:#684b15;}.cls-11{fill:#511f20;}.cls-12{fill:#f09920;}.cls-13{fill:#f5e39c;}.cls-14{fill:#d4c266;}.cls-15{fill:#e4ae48;}.cls-16{fill:#b38533;}.cls-17{fill:#fbdc4e;}</style></defs><title>jackpot</title><ellipse class="cls-1" cx="242.49" cy="272.73" rx="187.57" ry="55.76"/><path class="cls-2" d="M376.25,118.7l1.3,1.49c3.95,5.29,3.81,13,4,19.56l4.9-.13c-.7-8.31,1.16-18,2.81-26.24-1.12,0-2.17-.08-3.08-.13-6.74-.38-13.44-.88-20.15-1.64-3.08-.35-6.7-1.12-9.65.18-3.45,1.53-4.16,4.62-4.83,7.84,7.8-.6,15.64-.91,23.46-.93Z" transform="translate(-9.8 -10.02)"/><path class="cls-3" d="M387.69,139.59l9.57-.26c-.2-8.14.91-16.69,2.09-24.76a45,45,0,0,0-9.45-1.17c-.18,4.68-.6,9.35-1,14C388.61,131.44,388.59,135.64,387.69,139.59Z" transform="translate(-9.8 -10.02)"/><path class="cls-2" d="M405.21,139.12c.24-3.09.54-6.18.82-9.27.24-2.61,1.11-6,.69-8.61-.56-3.51-3.25-5.41-6.65-6.46,0,8.06-.15,16.57-1.49,24.52Z" transform="translate(-9.8 -10.02)"/><path class="cls-4" d="M343.58,152.61c0-.13.07-.27.12-.39a.21.21,0,0,1,.4,0c0,.1.06.2.09.3,3.23-.39,6.35.23,9.58.74a131.93,131.93,0,0,0,14.16,1.47q10.1.54,20.2.49c-2.46-.45-4.93-.89-7.4-1.26-8.28-1.21-16.6-2-25-2.41-12.57-.68-25.83-2.22-38.61-1.49a.29.29,0,0,1,0,.09c4.35.94,8.7,1.87,13.09,2.57s8.65,1.11,13,1.51c0-.26.13-.52.18-.78s.07-.37.11-.55l-.31-.07c-.08,0-.09-.15,0-.16Z" transform="translate(-9.8 -10.02)"/><path class="cls-5" d="M356.88,140.21c4.26-.05,8.52-.1,12.75-.17,0-1.82.08-3.63.1-5.45,0-.64.33-5.17-.18-5.41s-2.71.27-3.36.33l-3.25.27-5.73.46c0,3.29,0,6.61-.29,9.89C356.91,140.16,356.89,140.18,356.88,140.21Z" transform="translate(-9.8 -10.02)"/><path class="cls-4" d="M394.27,172.69c.34-3.37-.12-7.07-.09-10.44,0-1.86,0-3.73.08-5.59-16.84.47-33.43.12-49.93-3.58,0,.12.05.25.07.37.06.3.16.61.21.91,2.76.26,5.53.5,8.3.8,7.4.8,14.75,2.12,22.19,2.59,3.49.22,7,.23,10.47.18l1,0,.17,1.78a65,65,0,0,1-.24,12.33C389.08,172.27,391.67,172.49,394.27,172.69Z" transform="translate(-9.8 -10.02)"/><path class="cls-6" d="M429.86,176.76c2.15,4,1.83,9.75,2,14.11q.15,5,.22,10a10.11,10.11,0,0,0,3.12-2.35l.58-.81c-.2-4.79-.1-9.51-.72-14.29-.56-4.28,0-12.26-5.13-13.67a41.17,41.17,0,0,1-1.49,5.35Z" transform="translate(-9.8 -10.02)"/><path class="cls-7" d="M427.34,173.87l.09.1c.59-4.61,1.46-9.19,2.13-13.8l-1.8-.1a14.78,14.78,0,0,1-2.3-.2,113.15,113.15,0,0,1-.69,13.92s0,0,0,.07h2.59Z" transform="translate(-9.8 -10.02)"/><path class="cls-7" d="M423.25,173.79c.33-6.83.86-13.61,1-20.43l-.21,0a24.84,24.84,0,0,1-5.68.05c.18,6.81.09,13.64-.23,20.36,1.7,0,3.41,0,5.11.05C423.26,173.82,423.25,173.81,423.25,173.79Z" transform="translate(-9.8 -10.02)"/><path class="cls-7" d="M322.93,143c.27,1.68.55,3.35.73,5,2.16,0,4.34.11,6.51.19,8.2.31,16.42.53,24.62,1,13.14.7,26.66,1.91,39.64,4.72l.94.21.32,2.45c.31,2.94.36,5.92.46,8.85.07,2.21.58,5.17-.3,7.37q10.25.74,20.51.93c-.3-10.92-.42-22-.15-32.93q-21,.7-42.09,1.26C357.17,142.51,339.91,143.75,322.93,143Z" transform="translate(-9.8 -10.02)"/><path class="cls-6" d="M427.25,204.33c-3.66.53-7.43.16-11.12,0-2.31-.09-4.66-.31-7-.27a8.64,8.64,0,0,0-1.3.11c-1.07,4.33,0,10.56.33,14.2.95,9.74,9.37,8.22,16.59,7.64,2.67-.21,6.17,0,8.74-.8,4.84-1.57,5.72-7.73,5.95-12a33.31,33.31,0,0,0-.3-8.23,10.18,10.18,0,0,0-2.92-5.54C434.28,202.23,431,203.8,427.25,204.33Zm-4.43,16.48a7.18,7.18,0,0,1-11.39-3.38c-1.61-5.34,2.52-9.17,7.28-10.45a.38.38,0,0,1,.49.35,6.42,6.42,0,0,1,3.19,1C426.75,211.09,426.63,217.68,422.82,220.81Z" transform="translate(-9.8 -10.02)"/><path class="cls-8" d="M421.14,209.18c-4-2.12-6.51,1.81-7.66,5a.75.75,0,0,1-.23.33,6.74,6.74,0,0,0,0,.9,5,5,0,0,0,7.59,4.11C424.61,217.36,425.21,211.36,421.14,209.18Z" transform="translate(-9.8 -10.02)"/><path class="cls-4" d="M313.25,157.57c8.72,3.2,17.89,5,27,7q15.07,3.28,30.36,5.56c4.71.69,9.42,1.26,14.13,1.75a64.68,64.68,0,0,1,.58-12.17c-11.48-.1-22.73-1.69-34.28-3-12.56-1.43-24.69-3-36.76-6.42l-1,.09A23.32,23.32,0,0,1,313.25,157.57Z" transform="translate(-9.8 -10.02)"/><path class="cls-9" d="M321.38,148.07a30.83,30.83,0,0,1-.12-5.1l.08-1.31,1.35-.13c11.12-1,22.39-1.19,33.63-1.32,0,0,0,0,0-.08-.41-3.51-.54-7.08-.63-10.61a.79.79,0,0,1,.77-.78c3.08-.29,6.15-.57,9.23-.84,1.16-.1,3.82-.94,4.78.08s.25,3.83.28,5.07c.07,2.32.25,4.64.31,7l3.1-.06,5.87-.16c-1-6.47.18-14.19-3.67-19.55-9.58.33-19.16.56-28.71,1.42-6.52.58-13,1.37-19.46,2.48-3.56.62-7.58,1.06-11.28,2.08-3,6.44-.59,15.22.14,22.07C318.46,148.16,319.92,148.09,321.38,148.07Z" transform="translate(-9.8 -10.02)"/><path class="cls-6" d="M430.53,256.13a27.65,27.65,0,0,1-.45,3.52c6-.21,5.65-26,6-33.62a10.12,10.12,0,0,1-4.19,1.21C431.63,236.88,431.14,246.52,430.53,256.13Z" transform="translate(-9.8 -10.02)"/><path class="cls-6" d="M407.2,221.94a59.49,59.49,0,0,1-1-14.22,14,14,0,0,1,.41-3.18l1.1-2.31.89-.09a30.59,30.59,0,0,1,3.18,0c5,.21,12.29,1.27,17.87-.34l0-2.16c-.09-3.9-.22-7.79-.36-11.69-.14-3.72,0-7.88-1.76-11.1a324.74,324.74,0,0,1-56.76-3.77q-16.22-2.37-32.19-6.11c-8.83-2.07-17.94-4-26-8.25a.72.72,0,0,1-.53-.28l-.91-.49c-.53-.31-.16-1.25.43-1l.3.11c0-1,.07-2.08.15-3.12a11.38,11.38,0,0,0-4.81,2.6c-2.27,2.3-1.89,5.57-1.88,8.39,0,4.59.05,9.17.08,13.76q.09,12.69.17,25.39c.09,15,.28,29.95,1,44.92,8.42,5.36,19.23,5.92,28.94,7.36q16.86,2.51,33.81,4.25,16.63,1.71,33.32,2.76,8.34.54,16.69.86a49,49,0,0,0,7-.08,12.85,12.85,0,0,0,1.9-5.38c.5-3.74.59-7.61.8-11.38.37-6.66.55-13.33.66-20-1.06,0-2.09,0-3,.08C420.52,227.81,409,230.22,407.2,221.94Z" transform="translate(-9.8 -10.02)"/><path class="cls-2" d="M421.56,185.38c-4.39-2.62-10-3.06-15-3.58-6.13-.63-12.3-.82-18.44-1.35-12.66-1.08-25.44-1.59-38.06-3.06-.3,0-.33.42-.06.51,11.63,3.8,23,6.83,35.24,7.85,5.89.49,11.81.41,17.71.66s11.76,1.81,17.71,2.41C422.53,189,423,186.26,421.56,185.38Z" transform="translate(-9.8 -10.02)"/><path class="cls-2" d="M419.35,193a20.66,20.66,0,0,0-6.08-.31.78.78,0,0,0-.21,1.52,21.06,21.06,0,0,0,6,1.16A1.21,1.21,0,0,0,419.35,193Z" transform="translate(-9.8 -10.02)"/><path class="cls-2" d="M413.5,145a1.51,1.51,0,0,0-1.06-1.06c-4-.87-8.85.2-12.9.46-5.24.34-10.46.85-15.7,1.16a.12.12,0,0,0,0,.24c7.2.19,14.39.62,21.59.82,1.59,0,3.46-.39,4.68.74s.87,2.74,1,4.34c.21,3.72.48,7.37,1,11.07a.3.3,0,0,0,.59,0c.41-3.39.65-6.73.81-10.15C413.56,150.19,414.16,147.42,413.5,145Z" transform="translate(-9.8 -10.02)"/><path class="cls-10" d="M419.31,264.21a49,49,0,0,0,7-.08,12.85,12.85,0,0,0,1.9-5.38c.5-3.74.59-7.61.8-11.38,0,0,0-.08,0-.13-1,2.32-1.88,4.91-3.9,5.9s-5.8.3-8.12.31c-9.88,0-19.46-2.21-29.07-4.54-11.46-2.78-28.06-5-35.37-15.14-7.69-10.66-1.26-24-1.4-35.81a9.26,9.26,0,0,0-3.48-.09c-4.12,7.66-5.41,17.3-6.46,25.84-.5,4.11-.67,8.95-3.34,12.2-2.13-7-4.12-15.66-4.43-23.09-.47-11.4,3.61-23.52,1.14-34.86-1.48-6.77-4.09-7.34-10-9.82-5.69-2.39-11.23-3.5-12-9.37l-.09-.05a.72.72,0,0,1-.53-.28l-.91-.49c-.53-.31-.16-1.25.43-1l.3.11c0-1,.07-2.08.15-3.12a11.38,11.38,0,0,0-4.81,2.6c-2.27,2.3-1.89,5.57-1.88,8.39,0,4.59.05,9.17.08,13.76q.09,12.69.17,25.39c.09,15,.28,29.95,1,44.92,8.42,5.36,19.23,5.92,28.94,7.36q16.86,2.51,33.81,4.25,16.63,1.71,33.32,2.76Q411,263.89,419.31,264.21Z" transform="translate(-9.8 -10.02)"/><path class="cls-11" d="M431.83,190.87c-.14-4.36.18-10.13-2-14.11l-2.52-2.89h-2.5a383.89,383.89,0,0,1-54.27-3.76q-15.27-2.25-30.36-5.56c-9.67-2.1-19.47-4-28.7-7.61-.59-.23-1,.71-.43,1,8.43,4.76,18.11,6.83,27.46,9q16,3.75,32.19,6.11a324.74,324.74,0,0,0,56.76,3.77c1.76,3.22,1.62,7.38,1.76,11.1.14,3.9.27,7.79.36,11.69,0,1.06,0,2.12.05,3.17a2.14,2.14,0,0,1,.38-.07h0a7.62,7.62,0,0,1,1.28-.52,2.74,2.74,0,0,1,.74-.13C432,198.34,432,194.61,431.83,190.87Z" transform="translate(-9.8 -10.02)"/><path class="cls-11" d="M429.64,226.56c-.1,6.94-.28,13.88-.67,20.81-.21,3.77-.3,7.64-.8,11.38a12.85,12.85,0,0,1-1.9,5.38,49,49,0,0,1-7,.08q-8.35-.31-16.69-.86-16.68-1.07-33.32-2.76-16.95-1.75-33.81-4.25c-9.71-1.44-20.52-2-28.94-7.36-.75-15-.94-29.89-1-44.92q-.09-12.69-.17-25.39c0-4.59-.07-9.17-.08-13.76,0-2.82-.39-6.09,1.88-8.39a11.89,11.89,0,0,1,5.07-2.69,2,2,0,0,1-.07-1.16c-5.76,1.12-9,3.63-9.13,10.27-.23,10.77.17,21.59.26,32.36.13,17.09-.64,34.68.75,51.86l.2,2.37,2.44,1.92c7.24,5,16.4,5.53,25.25,6.82q18.15,2.66,36.41,4.5,19.07,1.94,38.21,2.88c5.37.27,11.93,1.43,17.85.79l3.32-.59,1.18-2.19a22,22,0,0,0,1.64-7.53c.63-9.95,1.14-19.92,1.41-29.89A6.43,6.43,0,0,1,429.64,226.56Z" transform="translate(-9.8 -10.02)"/><path class="cls-11" d="M437.13,197.92l-.91-.88-1.05,1.48c-5.12,5.87-16.41,3.92-23.4,3.62a30.59,30.59,0,0,0-3.18,0l-.89.09-1.1,2.31a14,14,0,0,0-.41,3.18,59.49,59.49,0,0,0,1,14.22c1.82,8.28,13.32,5.87,19.41,5.51,3.09-.18,7.28.24,9.95-1.69s3.73-6,4.22-9.12C441.92,209.48,441.75,202.7,437.13,197.92Zm2.33,15.32c-.23,4.25-1.11,10.41-5.95,12-2.57.83-6.07.59-8.74.8-7.22.58-15.64,2.1-16.59-7.64-.36-3.64-1.4-9.87-.33-14.2a8.64,8.64,0,0,1,1.3-.11c2.32,0,4.67.18,7,.27,3.69.15,7.46.52,11.12,0s7-2.1,9-4.86a10.18,10.18,0,0,1,2.92,5.54A33.31,33.31,0,0,1,439.46,213.24Z" transform="translate(-9.8 -10.02)"/><path class="cls-11" d="M422.39,208.35a6.42,6.42,0,0,0-3.19-1,.38.38,0,0,0-.49-.35c-4.76,1.28-8.89,5.11-7.28,10.45a7.18,7.18,0,0,0,11.39,3.38C426.63,217.68,426.75,211.09,422.39,208.35Zm-1.56,11.17a5,5,0,0,1-7.59-4.11,6.74,6.74,0,0,1,0-.9.75.75,0,0,0,.23-.33c1.15-3.19,3.68-7.12,7.66-5S424.61,217.36,420.83,219.52Z" transform="translate(-9.8 -10.02)"/><path class="cls-11" d="M386.72,159.69l-.17-1.78-1,0c-3.49,0-7,0-10.47-.18-7.44-.47-14.79-1.79-22.19-2.59-7.56-.81-15.16-1.26-22.68-2.44-5.61-.89-11.14-2.17-16.7-3.34a2.36,2.36,0,0,1-.35.59c12.42,3.63,24.89,5.24,37.82,6.71,11.55,1.31,22.8,2.9,34.28,3a64.41,64.41,0,0,0-.46,14.16c.06.73,1.27,1,1.4.19A65,65,0,0,0,386.72,159.69Z" transform="translate(-9.8 -10.02)"/><path class="cls-11" d="M396.15,165.44c-.1-2.93-.15-5.91-.46-8.85l-.32-2.45-.94-.21c-13-2.81-26.5-4-39.64-4.72-8.2-.43-16.42-.65-24.62-1-5.77-.22-11.55-.46-17.17.57l-.79.16,0,1.48c0,.78-.08,1.57-.14,2.36a33.31,33.31,0,0,0-.2,5.28c.06.68,1.09.92,1.26.17a22.13,22.13,0,0,0,.12-7.92c14-1.35,28.68.45,42.54,1.2,8.36.46,16.68,1.2,25,2.41,4.53.67,9,1.59,13.54,2.39-.08,2-.06,3.94-.09,5.9,0,3.71.54,7.83,0,11.47-.07.45.46.89.84.48C397,172,396.24,168.17,396.15,165.44Z" transform="translate(-9.8 -10.02)"/><path class="cls-11" d="M344.4,153.45a6.31,6.31,0,0,0-.3-1.23.21.21,0,0,0-.4,0,6.31,6.31,0,0,0-.3,1.23,6.07,6.07,0,0,0-.23,1.26.74.74,0,0,0,1.47,0A6.83,6.83,0,0,0,344.4,153.45Z" transform="translate(-9.8 -10.02)"/><path class="cls-11" d="M395,155.12q-13.54.34-27.07-.39a131.93,131.93,0,0,1-14.16-1.47c-3.56-.56-7-1.27-10.57-.59-.09,0-.08.14,0,.16,17.11,4,34.33,4.33,51.81,3.81A1.87,1.87,0,0,1,395,155.12Z" transform="translate(-9.8 -10.02)"/><path class="cls-11" d="M417.71,140.76l-.16-2-1.3,0q-21.06.58-42.13,1.12c-17,.43-34.42,0-51.43,1.58l-1.35.13-.08,1.31a28.79,28.79,0,0,0,.22,5.9c.2,1.26,2.36,1,2.24-.3-.17-1.84-.49-3.68-.79-5.53,17,.71,34.24-.53,51.19-1q21-.56,42.09-1.26c-.29,11.56-.15,23.25.2,34.78a.83.83,0,0,0,1.65,0A261.29,261.29,0,0,0,417.71,140.76Z" transform="translate(-9.8 -10.02)"/><path class="cls-11" d="M425.33,153.27l-.06-1.82-1,.12c-.8.1-1.61.17-2.42.21-1.59.08-4.26-.54-5.58.44a.49.49,0,0,0,.11.89l.1,0a.28.28,0,0,0,.3-.08l.07-.09a.19.19,0,0,0,0-.26c1.12,1.35,5.31.78,7.18.67l.21,0c-.16,6.82-.69,13.6-1,20.43,0,1,1.41,1,1.52,0A136.33,136.33,0,0,0,425.33,153.27Z" transform="translate(-9.8 -10.02)"/><path class="cls-11" d="M429.77,158.69h-2a8.25,8.25,0,0,0-3.29.38.27.27,0,0,0,0,.46,7.94,7.94,0,0,0,3.29.53l1.8.1c-.74,5.09-1.75,10.14-2.31,15.25-.07.62.82.64,1,.14a52.49,52.49,0,0,0,2.8-15.34l.08-1.5Z" transform="translate(-9.8 -10.02)"/><path class="cls-11" d="M377.55,120.19l-1.3-1.49H375a321.07,321.07,0,0,0-32.09,1.69c-5.71.6-11.42,1.4-17.06,2.48-2.52.49-5.31.88-8,1.59l-1.43.42-.91,1.73c-3.18,7-2.07,17.44.36,23.58.25.62,1.31.61,1.26-.17-.41-7-3.55-16.8-.29-23.8,3.7-1,7.72-1.46,11.28-2.08,6.44-1.11,12.94-1.9,19.46-2.48,9.55-.86,19.13-1.09,28.71-1.42,4.07,5.67,2.49,14,3.86,20.63a.71.71,0,0,0,1.38-.18C381.33,133.91,381.69,125.73,377.55,120.19Z" transform="translate(-9.8 -10.02)"/><path class="cls-11" d="M370.71,133.05c0-1.24.6-4.13-.28-5.07s-3.62-.18-4.78-.08c-3.08.27-6.15.55-9.23.84a.79.79,0,0,0-.77.78c.09,3.53.22,7.1.63,10.61a.32.32,0,0,0,.64,0c.28-3.28.31-6.6.29-9.89l5.73-.46,3.25-.27c.65-.06,2.82-.59,3.36-.33s.19,4.77.18,5.41c0,2.22-.14,4.43-.09,6.65a.71.71,0,0,0,1.41,0C371,138.51,370.8,135.78,370.71,133.05Z" transform="translate(-9.8 -10.02)"/><path class="cls-11" d="M406.72,121.24c.42,2.59-.45,6-.69,8.61-.32,3.47-.67,6.93-.91,10.4a1.06,1.06,0,0,1,.31-.05l.06,0a.5.5,0,0,1,.12,0l.06,0h0a.5.5,0,0,1,.13,0,2.72,2.72,0,0,1,.57,0,1.46,1.46,0,0,1,.22,0c.47-4.63.75-9.28,1.16-13.92.24-2.81,1.17-6.58-.38-9.2-3.33-5.62-15.67-5.16-21.22-5.49-5.1-.3-10.18-.6-15.26-1.13-4-.42-8.38-1.44-12.46-1-6.13.74-8.17,5.79-7.5,11.43,0,.17.28.24.32,0,.8-3.66,1.19-7.4,5.1-9.13,2.95-1.3,6.57-.53,9.65-.18,6.71.76,13.41,1.26,20.15,1.64C392.61,113.61,405.42,113.09,406.72,121.24Z" transform="translate(-9.8 -10.02)"/><path class="cls-11" d="M389.4,112.55c-1.72,8.6-3.8,19-2.92,27.72,0,.55.87.75,1,.14,1.1-4.19,1.09-8.69,1.43-13,.39-4.93.85-9.85,1-14.8C390,112.32,389.46,112.24,389.4,112.55Z" transform="translate(-9.8 -10.02)"/><path class="cls-11" d="M399.5,113.51c-1.27,8.64-2.54,17.89-2.23,26.62,0,.63,1,.83,1.16.15,1.56-8.61,1.65-18,1.64-26.69C400.07,113.28,399.55,113.18,399.5,113.51Z" transform="translate(-9.8 -10.02)"/><path class="cls-11" d="M435.66,175.72c-.59-3.5-2-7.41-6.24-6.73a.33.33,0,0,0,0,.63c5.66,1,5,9.39,5.61,13.8.63,4.85.52,9.64.73,14.51a.29.29,0,0,0,.57,0A88.79,88.79,0,0,0,435.66,175.72Z" transform="translate(-9.8 -10.02)"/><path class="cls-11" d="M437.3,224.49c0-.71-1-.67-1.08,0-.61,4.76.4,36.25-6.56,35.16-1.23-.2-1.73,1.7-.51,1.87,5.68.76,6.41-6.56,7.11-10.67C437.74,242.15,437,233.27,437.3,224.49Z" transform="translate(-9.8 -10.02)"/><path class="cls-12" d="M340.57,243.72c.07,1.63.13,3.26.18,4.9,5.56,3.86,13.16,4,19.76,3.71C368,252,374.7,250.59,381.1,247c0-.91.09-1.82.14-2.73,0-.28,0-.56,0-.85-6.44,3.94-14.54,4.85-21.94,5.08C352.3,248.67,345.68,248,340.57,243.72Z" transform="translate(-9.8 -10.02)"/><path class="cls-12" d="M340.78,249.82q.09,3.47.12,6.94c5.55,3.76,13.07,3.88,19.61,3.6,7.38-.31,13.94-1.7,20.23-5.19q.12-3.13.26-6.27c-6.47,4-14.65,5-22.12,5.2C352.18,254.31,345.81,253.65,340.78,249.82Z" transform="translate(-9.8 -10.02)"/><path class="cls-12" d="M359.68,242.84c-.81,0-1.61,0-2.42-.07-4.22-.26-11.51-1.14-17-4.1.08,1.27.15,2.56.21,3.84,5.61,4.3,13.52,4.47,20.37,4.18,7.4-.32,14-1.71,20.28-5.22v-.6a20.62,20.62,0,0,0,0-2.08,1.65,1.65,0,0,0-.78-1.33l-1.14.6A43.42,43.42,0,0,1,359.68,242.84Z" transform="translate(-9.8 -10.02)"/><path class="cls-12" d="M340.91,258c0,2.12,0,4.24,0,6.36,5.59,4.22,13.45,4.37,20.25,4.08,7-.3,13.2-1.56,19.16-4.63.09-1.25.18-2.49.24-3.74l.12-2.87c-6.41,3.85-14.43,4.74-21.77,5C352.24,262.33,345.92,261.69,340.91,258Z" transform="translate(-9.8 -10.02)"/><path class="cls-12" d="M340.86,265.44c0,1.95-.07,3.9-.13,5.85,5.59,4.13,13.39,4.28,20.15,4a45.05,45.05,0,0,0,18.86-4.47c.13-1.67.27-3.33.4-5-6.21,3.3-13.72,4.11-20.63,4.32S346,269.66,340.86,265.44Z" transform="translate(-9.8 -10.02)"/><path class="cls-12" d="M378.87,236.81c0-1.6.09-3.22.18-4.79l.09-2a43.39,43.39,0,0,1-18,4.59c-8.25.44-15.05-.23-20.5-6l-.45-.51-.51.27a12.13,12.13,0,0,0-1.64,1,49.11,49.11,0,0,1,.21,6.57c5.58,3.9,14.74,5.35,21.47,5.4A41.34,41.34,0,0,0,378.87,236.81Z" transform="translate(-9.8 -10.02)"/><path class="cls-12" d="M379.47,207.9a30.46,30.46,0,0,1,.37-5.55c-13.16,5.94-30.79,3.3-42.4-4.6-.37.21-.8.29-1.17.53a5,5,0,0,0-.52.38,40.86,40.86,0,0,0,1,5.48c6.75,5,15.16,6.47,23.55,6.71C367,211,373.54,210.59,379.47,207.9Z" transform="translate(-9.8 -10.02)"/><path class="cls-12" d="M340.7,272.41q-.07,2.47-.18,4.95c5.62,4.58,13.74,4.75,20.74,4.45a45.7,45.7,0,0,0,18-4c.08-1.63.19-3.26.31-4.89-6.14,3.17-13.52,3.95-20.31,4.16S345.8,276.56,340.7,272.41Z" transform="translate(-9.8 -10.02)"/><path class="cls-12" d="M358.67,220.18c-6-.26-12.46-1-17.52-4.4q.11,2.92,0,5.86c12.14,6.32,27.42,4.91,40.15,1.14l.18-2.63c.05-.86.22-2,.36-3.24C374.83,220.18,366.19,220.52,358.67,220.18Z" transform="translate(-9.8 -10.02)"/><path class="cls-12" d="M361,191.53c-5.79-.12-17.75.67-22.37-4.68-.05,1.42-.1,2.84-.13,4.27,12.39,8.29,29.19,7.3,43,3.61a50.26,50.26,0,0,1,.39-6.75C376.88,191.71,364.63,191.61,361,191.53Z" transform="translate(-9.8 -10.02)"/><path class="cls-12" d="M358,227.28c-5.8-.27-12-1-17-4.07-.07,1.42-.17,2.84-.31,4.23A20.24,20.24,0,0,0,352,232.62a69.26,69.26,0,0,0,10.08.4,37.62,37.62,0,0,0,17.07-4.12v-.16h.29c.48-.27,1-.53,1.44-.83.12-1.28.21-2.56.3-3.84C374.21,227.31,365.56,227.63,358,227.28Z" transform="translate(-9.8 -10.02)"/><path class="cls-8" d="M357.58,179.92c-6.61.46-13.58.8-18.6,5,4.2,5.12,14.25,4.65,20.16,4.89,3.59.14,19.18.78,22.93-3.63C378.7,179.18,363.24,179.52,357.58,179.92Z" transform="translate(-9.8 -10.02)"/><path class="cls-12" d="M357.3,198.62c-6.65-.54-13.77-1.67-18.86-6.24,0,1.47-.08,2.94-.13,4.41,13.36,6.73,30,9.48,43.51,2.18a25,25,0,0,1-.34-3.18C374.19,199.2,365.12,199.26,357.3,198.62Z" transform="translate(-9.8 -10.02)"/><path class="cls-12" d="M379.59,209.12c-11.65,5.66-27.78,5.45-39.14-1,.29,2,.5,4,.62,6.05,12.27,6.74,27.92,5.31,40.9,1.44,0,0,0,.07,0,.1v0c.23-2.74.14-5.66-1.57-7.05Z" transform="translate(-9.8 -10.02)"/><path class="cls-8" d="M366.19,227.31a48.57,48.57,0,0,0,10.08-1.48c-.34,1.8-1,3.3-1.4,5a37.37,37.37,0,0,1-8.38,1.9C366.44,230.9,366.32,229.1,366.19,227.31Zm10.27-29.74a47.18,47.18,0,0,1-11.34,1.36c-.05,1.43-.06,2.9,0,4.35a39.29,39.29,0,0,0,10.71-1.77A10,10,0,0,0,376.46,197.57Zm-10.64,56.05q-.19,3.18-.37,6.34a43,43,0,0,0,11.68-3c.12-1,.27-2,.45-3s.46-2.25.7-3.5A39.8,39.8,0,0,1,365.82,253.62Zm.1-1.74a41.7,41.7,0,0,0,12.73-3.65,18.12,18.12,0,0,0,.19-3.58A39.86,39.86,0,0,1,366.13,248Zm7.28-42a15.77,15.77,0,0,1,0-4.23,4,4,0,0,1,.29-1.21,40.92,40.92,0,0,1-8.3,1.07c.08,1.77.19,3.53.27,5.29A45.1,45.1,0,0,0,373.2,209.91Zm4.4,30.72a3.33,3.33,0,0,0-1.54-1.13,43.69,43.69,0,0,1-9.68,2.77c-.05,1.33-.1,2.65-.16,4a41.77,41.77,0,0,0,12.34-3.46A6.72,6.72,0,0,0,377.6,240.63Zm-2.8-2c-.05-.07-.1-.13-.15-.21-.59-1.14.09-3.92,0-5.23a7.36,7.36,0,0,1,0-1.16,43.68,43.68,0,0,1-8.19,2.07c0,.26,0,.51,0,.77,0,2,0,4-.1,6A41.68,41.68,0,0,0,374.8,238.59Zm-9.08-18.35c.09,1.84.22,3.68.36,5.51a75.62,75.62,0,0,0,10.38-1.68c0-.07,0-.12,0-.18,0-1.31.23-3.22.33-5.17A50.14,50.14,0,0,1,365.72,220.24Zm-.36,41.46c-.11,2.13-.22,4.26-.31,6.39a44,44,0,0,0,11.52-2.68c0-2.14.14-4.27.33-6.4A42.56,42.56,0,0,1,365.36,261.7Zm9.19-50.59a43.94,43.94,0,0,1-9,1.83c0,1.19.07,2.38.07,3.59,0,.73,0,1.46,0,2.18A73.79,73.79,0,0,0,376.83,217C376.81,214.39,376.33,212,374.55,211.11Zm-9.33-13.73a75.4,75.4,0,0,0,11.2-1.46c-.06-1.2-.17-2.36-.17-3.35,0-.74,0-1.5-.07-2.25a53.55,53.55,0,0,1-10.35,1.19C365.82,193.46,365.41,195.55,365.22,197.38Zm11.32,70.05a45.72,45.72,0,0,1-11.57,2.4c-.08,1.73-.15,3.45-.23,5.17a44.5,44.5,0,0,0,11.78-2.76C376.52,270.63,376.52,269,376.54,267.43ZM376.45,279c.05-1.57.07-3.15.07-4.73a45.75,45.75,0,0,1-11.86,2.51q-.11,2.44-.24,4.86A44.92,44.92,0,0,0,376.45,279Z" transform="translate(-9.8 -10.02)"/><path class="cls-11" d="M337.88,197.33a1.93,1.93,0,0,1,.42.06c.16-4.59.2-9.18.46-13.78a1.49,1.49,0,0,1-.7.19,1.34,1.34,0,0,1-.26.09c-.53,4.47-1.05,9-1.21,13.5a1.23,1.23,0,0,1,.53.14A1.72,1.72,0,0,1,337.88,197.33Z" transform="translate(-9.8 -10.02)"/><path class="cls-11" d="M382.8,184.84c-3.77-6.26-16.61-6.56-22.59-6.59-6.64,0-17.12-.18-22.16,5.21l-.84,1,.68,1.43c4,6.41,17,5.5,23.09,5.63,3.83.08,17.11.2,21.54-4.1l.93-1.19Zm-23.66,4.95c-5.91-.24-16,.23-20.16-4.89,5-4.18,12-4.52,18.6-5,5.66-.4,21.12-.74,24.49,6.24C378.32,190.57,362.73,189.93,359.14,189.79Z" transform="translate(-9.8 -10.02)"/><path class="cls-11" d="M382.83,186.05c0-.38-.65-.54-.72-.1a43,43,0,0,0-.26,13.25c.09.49.94.51,1,0A64.22,64.22,0,0,0,382.83,186.05Z" transform="translate(-9.8 -10.02)"/><path class="cls-11" d="M383,198.3c-14.05,8.35-31.88,5.26-45.8-2.08l-1.14.55a2.79,2.79,0,0,0-1.39,1.92.38.38,0,0,0,.31.38,26.92,26.92,0,0,0,.16,3.81l.26,1.73.79.66c11.25,9.16,30.2,10.26,43.39,3.85l1.38-.71,0-1.24c0-1.77-.08-3.54-.08-5.31.61-.3,1.21-.61,1.79-1C382.7,200,382.89,199.16,383,198.3Zm-3.54,9.6c-5.93,2.69-12.51,3.13-19.19,2.95-8.39-.24-16.8-1.75-23.55-6.71a40.86,40.86,0,0,1-1-5.48,5,5,0,0,1,.52-.38c.37-.24.8-.32,1.17-.53,11.61,7.9,29.24,10.54,42.4,4.6A30.46,30.46,0,0,0,379.47,207.9Z" transform="translate(-9.8 -10.02)"/><path class="cls-11" d="M382,194.58c-14,3.84-31.23,5-43.81-3.65-.43-.29-.89.34-.54.7,5.12,5.2,12.65,6.43,19.65,7,8.12.66,17.62.59,25-3.24A.44.44,0,0,0,382,194.58Z" transform="translate(-9.8 -10.02)"/><path class="cls-11" d="M381.49,223a1,1,0,0,1,0-.25c-12.94,3.85-28.56,5.32-40.84-1.33a1.76,1.76,0,0,1-.06.38,1.56,1.56,0,0,1-.51.77c5.12,3.65,11.74,4.44,17.94,4.73,7.65.36,16.49,0,23.57-3.39A6.65,6.65,0,0,1,381.49,223Z" transform="translate(-9.8 -10.02)"/><path class="cls-11" d="M382,215.73s0-.07,0-.1c-13.12,3.91-29,5.34-41.28-1.64a2,2,0,0,1-.51,1.1c5.19,4,12.07,4.81,18.49,5.09,7.66.35,16.51,0,23.59-3.46A2.23,2.23,0,0,1,382,215.73Z" transform="translate(-9.8 -10.02)"/><path class="cls-11" d="M380.19,208.22a.14.14,0,0,0-.08.26c3.15,2,1.58,8.61,1.38,11.67-.18,2.58-.32,5.17-.56,7.75-5.59,3.55-12.08,4.93-18.81,5.12a69.26,69.26,0,0,1-10.08-.4,20.24,20.24,0,0,1-11.26-5.18,78.13,78.13,0,0,0-.5-20.41c0-.22-.34-.17-.4,0l-.19.57c0,.08.07.13.13.08-.7.76-.12,3.92-.13,5.06q0,3.3-.09,6.6c0,2.29-.14,4.58-.2,6.86l0,1,1.29,1.48c5.45,5.73,12.25,6.4,20.5,6a42.09,42.09,0,0,0,19.64-5.5l1.24-.78,0-1.22c.2-4.79.71-9.56.9-14.35C383.07,210.53,383.13,207.91,380.19,208.22Z" transform="translate(-9.8 -10.02)"/><path class="cls-11" d="M380.61,236.31c0-1.11-.07-2.24-.12-3.33l0-.44,0-.8a17.44,17.44,0,0,0-.26-3l-.11-.31-.29.16a1.09,1.09,0,0,1-.28.11h-.3V229c0,1-.09,2-.14,3.05-.09,1.57-.18,3.19-.18,4.79a41.34,41.34,0,0,1-19.13,4.54c-6.73,0-15.89-1.5-21.47-5.4a49.11,49.11,0,0,0-.21-6.57,12.13,12.13,0,0,1,1.64-1l.57-.3a.36.36,0,0,0,.17-.41.37.37,0,0,0-.35-.28,6.27,6.27,0,0,0-2.51.63l-.54.29-.1,1.41c-.12,2-.17,3.85-.16,5.57l0,.88,1,.85c5.49,4.27,14.54,5.41,19.45,5.71.81,0,1.61.07,2.42.07a43.42,43.42,0,0,0,19.55-4.78l1.38-.72Z" transform="translate(-9.8 -10.02)"/><path class="cls-11" d="M381.93,237.8a.11.11,0,0,0-.22,0c-.68,7.38-.82,14.82-1.18,22.22-.29,5.9-1,11.84-1.27,17.76a45.7,45.7,0,0,1-18,4c-7,.3-15.12.13-20.74-4.45a371.35,371.35,0,0,0-.25-39.2.45.45,0,0,1-.11,0,.8.8,0,0,1-.37-.21l-.12-.1-.25-.13c.14.07.05,0-.05,0l.05,0-.16-.07a370.25,370.25,0,0,0-.59,38l0,1,1.77,1.81c5.17,4.61,12,5.37,19.16,5.14,6.51-.2,13.56-.92,19.54-3.76l1.74-.91.26-2.08c.57-5.26.71-10.62,1-15.83A164.64,164.64,0,0,0,381.93,237.8Z" transform="translate(-9.8 -10.02)"/><path class="cls-11" d="M380.74,271.56l-.1-1.19c-6.15,3.3-12.56,4.61-19.76,4.92s-15.91.12-21.55-5.15c0,.32-.06.64-.08,1,5.26,5.32,12.43,6.19,20,5.95,7.28-.23,15.24-1.11,21.63-4.89A2.3,2.3,0,0,1,380.74,271.56Z" transform="translate(-9.8 -10.02)"/><path class="cls-11" d="M381.56,263.1c-6.35,3.57-13,5-20.43,5.29s-15.87.12-21.5-5.11c0,.34,0,.69,0,1,5.25,5.23,12.37,6.08,19.9,5.84S375.13,269,381.59,265C381.57,264.37,381.57,263.74,381.56,263.1Z" transform="translate(-9.8 -10.02)"/><path class="cls-11" d="M381.39,256.53a1.75,1.75,0,0,1-.26-1c0-.2,0-.39.05-.59-6.43,3.68-13.12,5.11-20.67,5.43-6.91.29-14.92.15-20.53-4.26v1.1c5.14,4.41,11.84,5.15,18.9,4.92,7.62-.23,16-1.18,22.52-5.42A1,1,0,0,1,381.39,256.53Z" transform="translate(-9.8 -10.02)"/><path class="cls-11" d="M382,247c0-.17,0-.34,0-.51-6.67,4-13.6,5.56-21.46,5.89-7,.3-15.08.14-20.7-4.4l.06,1.15c5.15,4.49,11.9,5.24,19,5,7.83-.25,16.43-1.25,23-5.78C381.94,247.86,382,247.41,382,247Z" transform="translate(-9.8 -10.02)"/><path class="cls-11" d="M381.6,241.24c-6.44,3.69-13.15,5.13-20.72,5.45-7,.3-15.19.13-20.82-4.52a1.73,1.73,0,0,1-.45.7c5.23,5,12.25,5.81,19.65,5.58,7.62-.24,16-1.18,22.51-5.43C381.72,242.43,381.68,241.84,381.6,241.24Z" transform="translate(-9.8 -10.02)"/><path class="cls-11" d="M382.35,238.2c-.21-1.22-1.24-1.41-2.38-1.35a.15.15,0,0,0-.07.28c.74.51,1.15.74,1.25,1.66a20.62,20.62,0,0,1,0,2.08c0,1.29,0,2.58.11,3.86a.63.63,0,0,0,1.25,0A24.63,24.63,0,0,0,382.35,238.2Z" transform="translate(-9.8 -10.02)"/><path class="cls-11" d="M385.9,247.86c-6.76,3.14-10.2,12.26-8.69,19.84C379.47,279,387.57,292,400.65,288,423.83,280.93,405.77,234.69,385.9,247.86Zm8.31,0,.08,0a10.61,10.61,0,0,1,4.41,1.44c4.44,2.53,7.34,7.26,8.9,12,2.38,7.25,2.84,17-3,21.93C390,286.36,377.24,262,385.69,250.8A19.57,19.57,0,0,1,394.21,247.84ZM400,285.61c-5.64,1.69-10.26.53-13.85-4.27a38.91,38.91,0,0,1-5.75-11.07c-2.35-7.23-1.12-13.58,3.07-17.7-6.63,12.13,4,33.27,17.7,32.62C400.78,285.34,400.39,285.49,400,285.61Z" transform="translate(-9.8 -10.02)"/><path class="cls-8" d="M398.7,249.24a10.61,10.61,0,0,0-4.41-1.44l-.08,0a19.57,19.57,0,0,0-8.52,3c-8.45,11.17,4.35,35.56,18.88,32.38,5.87-5,5.41-14.68,3-21.93C406,256.5,403.14,251.77,398.7,249.24Z" transform="translate(-9.8 -10.02)"/><path class="cls-12" d="M383.46,252.57c-4.19,4.12-5.42,10.47-3.07,17.7a38.91,38.91,0,0,0,5.75,11.07c3.59,4.8,8.21,6,13.85,4.27.4-.12.79-.27,1.17-.42C387.42,285.84,376.83,264.7,383.46,252.57Z" transform="translate(-9.8 -10.02)"/><path class="cls-8" d="M141.24,256.54q5.23-1.19,10.48-2.3c-1.13-1.31-2.08-2.89-3.1-4.21a30.68,30.68,0,0,1-3.34-4.38l-4.07.88c-6.57,1.46-13,3-19.38,4.63a14.8,14.8,0,0,1,4.1,3.25,23.34,23.34,0,0,1,4,4.71Q135.57,257.82,141.24,256.54Z" transform="translate(-9.8 -10.02)"/><path class="cls-8" d="M143.62,195.56q11.22-3.5,22.3-7.34a124.41,124.41,0,0,0-14.6-12.55.67.67,0,0,1-.89-.61s0-.06,0-.09c-1.6-1.22-3.21-2.44-4.82-3.68a131.73,131.73,0,0,1-10.8-9.06c-2.95-2.84-5.51-5.93-8.84-8.25q-5.26,1.47-10.54,2.81C111,157.92,106.51,159,102,160c6.72,5.13,13.19,10.6,19.61,16.09C129,182.41,136.89,188.55,143.62,195.56Z" transform="translate(-9.8 -10.02)"/><path class="cls-12" d="M148.35,228.31c-3.43.74-6.86,1.47-10.29,2.23q-6.8,1.52-13.55,3.07c.26,2.3.32,4.63.43,6.94a41,41,0,0,1,.06,7.59q7.35-1.71,14.7-3.37c2.49-.56,5-1.1,7.47-1.64A96.78,96.78,0,0,1,148.35,228.31Z" transform="translate(-9.8 -10.02)"/><path class="cls-13" d="M136.51,161.55c3.07,2.78,6.27,5.41,9.55,7.95l4,3.07A13.56,13.56,0,0,0,136.51,161.55Z" transform="translate(-9.8 -10.02)"/><path class="cls-14" d="M177.86,188.89c7.53-2.36,14.91-5.07,22.25-7.94,0-.88,0-1.76.07-2.64-10.93,4.41-22,8.46-33.21,12.22a51.24,51.24,0,0,1-.62,16.53q17-5.4,34-11c-.13-2-.19-4.06-.23-6.11A154.71,154.71,0,0,1,185,195.39c-.37.11-.51-.45-.16-.58a150,150,0,0,0,15.21-6.66c0-.72,0-1.44,0-2.16-5.22,1.9-10.47,3.73-15.68,5.64-.33.12-.45-.38-.15-.51,5.3-2.16,10.55-4.42,15.84-6.59,0-.62,0-1.24,0-1.86A153,153,0,0,1,178,189.35.24.24,0,0,1,177.86,188.89Z" transform="translate(-9.8 -10.02)"/><path class="cls-7" d="M157.47,146.8a.61.61,0,0,1,.49-.16l.36-.13c.57-.19,1,.39,1,.89,4.82,3.07,8.9,7.16,13.13,11,.33.29-.11.86-.47.61-1.05-.73-12.49-9-13.89-10.67a170.49,170.49,0,0,1-26.53,8.63c1.07,1,2.12,2,3.2,3,.32.31.66.6,1,.9,8-1.11,15.69,4.93,16,13.07,4,3.11,7.84,6.3,11.47,9.76,8.08-3.31,16.69-7.07,25.11-9.32a.57.57,0,0,1,.44,1c-7.39,4.17-16.59,7-24.86,8.94,1.15,1.12,2.27,2.25,3.36,3.43,10.39-3.61,20.71-7.4,31-11.28-13.86-10.36-25.93-23.26-40.07-33.26a298.37,298.37,0,0,1-30.87,10.38,34.27,34.27,0,0,1,3.38,2.62C139.56,152.93,148.53,149.82,157.47,146.8Zm18.84,13.43c4.89,4.23,10.22,8.31,14.66,13,.5.53-.17,1.48-.81,1-5.38-3.62-10.07-8.71-14.36-13.54A.36.36,0,0,1,176.31,160.23Z" transform="translate(-9.8 -10.02)"/><path class="cls-12" d="M153.46,211.09c3.74-1.15,7.48-2.33,11.22-3.51.19-5.49.49-11.11,1-16.61q-10.3,3.45-20.69,6.59l-1.91.57a103.23,103.23,0,0,1-.79,16.48Q147.86,212.83,153.46,211.09Z" transform="translate(-9.8 -10.02)"/><path class="cls-7" d="M177.81,206.35c2.84.89,5.35,3.24,7.81,4.67.45.27.12.83-.32.77-3.39-.46-6.05-3.23-8.9-5q-11.1,3.48-22.25,6.82c-4.08,1.23-8.17,2.5-12.27,3.77,0,0,0,.07,0,.1s0,.06,0,.09a25.15,25.15,0,0,1,3.29,3.32l1.19,1.28a192.65,192.65,0,0,1,33.53-7.9.31.31,0,0,1,.17.6,162.81,162.81,0,0,1-33.22,7.82,15.71,15.71,0,0,1,2.45,3.32c15.18-3.26,30.36-6.38,45.33-10.42a87.93,87.93,0,0,1-13.41-10.32Z" transform="translate(-9.8 -10.02)"/><path class="cls-14" d="M91,253c-5.52,1.65-11.74,4.29-17.52,4.66-.07,1.21-.12,2.43-.17,3.65,16.58-4.74,33.34-8.92,50.15-12.83-.52-2.59-.25-5.34-.21-8,0-2.23,0-4.47.22-6.69-15.56,3.58-31.09,7.31-46.64,10.92l-2.55.59c-.08,1.4-.17,2.8-.26,4.2q12.12-2.74,24.33-5.14c.32-.06.46.42.14.5q-12.24,3.13-24.56,5.9c0,.63-.08,1.26-.13,1.9,3.4-.6,6.79-1.13,10.16-1.87a.17.17,0,0,1,.09.33c-3.4,1.06-6.86,2.13-10.34,2.89,0,.8-.11,1.6-.16,2.4,5.3-2.12,11.77-2.64,17.33-3.9A.23.23,0,0,1,91,253Z" transform="translate(-9.8 -10.02)"/><path class="cls-14" d="M149.22,228.13a61.67,61.67,0,0,1-.05,14.56c15.93-3.44,31.89-6.65,47.62-10.85,0-1-.07-2-.09-3h0c-4,1-8.09,1.65-12.1,2.6a.17.17,0,0,1-.09-.33,96.85,96.85,0,0,1,11.88-3.4.6.6,0,0,1,.3,0c0-.82,0-1.63,0-2.45-3.65,1.17-7.48,1.95-11.18,2.9a.24.24,0,0,1-.12-.46c3.72-1.22,7.47-2.68,11.27-3.65,0-.64,0-1.28,0-1.92-5.51,1.45-11.31,2.11-16.88,3.3a.26.26,0,0,1-.14-.5c5.53-1.53,11.27-3.41,17-4.15,0-1.07,0-2.14,0-3.21-7.28,2.11-14.75,3.66-22.1,5.21Q161.78,225.43,149.22,228.13Z" transform="translate(-9.8 -10.02)"/><path class="cls-7" d="M124.36,254.72c-1-1.15-2.21-2.2-3.21-3.39-13.9,3.52-27.58,7.24-41.72,10.62a46.46,46.46,0,0,1,2.41,4.64.78.78,0,0,1,0,.5C95.59,261.74,110.06,258.13,124.36,254.72Z" transform="translate(-9.8 -10.02)"/><path class="cls-7" d="M127.81,259.6c-.84-1.11-1.53-2.41-2.33-3.52-15.19,3.66-30.1,8.36-45.27,12.06a.2.2,0,0,1-.11-.38l.77-.29a.27.27,0,0,1-.08-.07,55.22,55.22,0,0,1-3.66-4.9l-3.6.85h0c2.32,2.73,4.68,5.42,7,8.12C96.19,267.14,112,263.27,127.81,259.6Z" transform="translate(-9.8 -10.02)"/><path class="cls-8" d="M121.24,226.66a23.12,23.12,0,0,1,4,4.71q5.67-1.31,11.34-2.59,5.23-1.17,10.48-2.3c-1.13-1.3-2.08-2.88-3.1-4.21a34.78,34.78,0,0,1-3.22-4.15,1.13,1.13,0,0,1-.46-.24c-7.16,2.22-14.34,4.42-21.57,6.46A22.19,22.19,0,0,1,121.24,226.66Z" transform="translate(-9.8 -10.02)"/><path class="cls-14" d="M113.89,220c-5.39,1.95-11.07,4.16-16.84,4.68.08,1.16.16,2.32.21,3.47,14.4-3.75,28.65-8.34,42.86-12.85.4-5.58.86-11.19,1.52-16.74-9,2.7-18.06,5.25-27.16,7.58-5,1.26-9.93,2.49-14.91,3.65-1.41.33-2.83.62-4.26.91.2,1.21.39,2.43.56,3.65,1-.19,2-.25,2.78-.43,2.93-.72,5.84-1.56,8.75-2.36,6.35-1.75,12.72-3.45,19.09-5.15a.37.37,0,0,1,.19.71c-5.38,1.7-10.77,3.41-16.17,5.08l-8,2.48c-1.91.58-4.34.83-6.34,1.5.1.74.2,1.47.29,2.21,6.53-1.4,13-2.51,19.46-4.46.48-.14.66.58.21.74-6.27,2.28-12.83,4.53-19.45,5.61.11,1,.2,2,.29,2.94a104.91,104.91,0,0,0,16.83-3.69C114.07,219.43,114.18,219.88,113.89,220Z" transform="translate(-9.8 -10.02)"/><path class="cls-7" d="M75.85,243.72c15.65-4.34,31.44-8.21,47.27-11.87-.84-1.11-1.53-2.41-2.33-3.52-15.19,3.65-30.1,8.36-45.27,12.06a.2.2,0,0,1-.11-.38l.77-.29-.09-.07c-3.49-4.11-6.24-9-9.16-13.48-3.2-4.95-7-9.93-9.41-15.31a.17.17,0,0,1,.26-.2c3.85,3.71,6.85,8.5,9.89,12.88,3.37,4.85,7.08,9.9,9.48,15.3a.76.76,0,0,1,0,.49c13.72-5.34,28.19-9,42.49-12.36-.72-.79-1.49-1.53-2.23-2.29-6.27,1.75-12.58,3.37-18.92,4.73l-3.08.65L93.91,229A319.78,319.78,0,0,1,68,208.74a.85.85,0,0,1-.21.14,22.71,22.71,0,0,1-4.38.91c-1.16.23-2.55.83-3.72.47a.07.07,0,0,1,0-.1c.6-1,2-1.41,3.07-1.82a15.5,15.5,0,0,1,3.63-1c-1.41-1.23-2.82-2.47-4.21-3.71-4.95,1.63-10,3.06-15,4.33,5.28,4.89,9.17,11.74,13.32,17.31C65.28,231.69,70.56,237.7,75.85,243.72Z" transform="translate(-9.8 -10.02)"/><path class="cls-14" d="M128.11,261.61c-15.56,3.58-31.09,7.31-46.64,10.92l-2.55.6c-.08,1.4-.17,2.79-.26,4.19q12.12-2.74,24.33-5.14c.32-.06.46.42.14.5q-12.24,3.15-24.56,5.9c0,.63-.08,1.27-.13,1.9,3.4-.59,6.79-1.13,10.16-1.87a.17.17,0,0,1,.09.33c-3.4,1.06-6.86,2.13-10.34,2.89,0,.8-.11,1.6-.16,2.4,5.3-2.12,11.77-2.63,17.33-3.9a.23.23,0,0,1,.12.45c-5.52,1.65-11.74,4.29-17.52,4.66-.07,1.22-.12,2.44-.17,3.66,16.58-4.74,33.34-8.92,50.15-12.84-.52-2.59-.25-5.34-.21-8C127.93,266.07,127.93,263.83,128.11,261.61Z" transform="translate(-9.8 -10.02)"/><path class="cls-13" d="M69.13,258.09c.75.94,1.53,1.87,2.3,2.8a109.28,109.28,0,0,1,2.15-16.13l-.31-.32c-9.86-10.61-17.8-22.89-26.53-34.43.08,1.48.15,3,.2,4.41C51,220.57,55,226.73,60,232.21a.18.18,0,0,1-.26.25A116.88,116.88,0,0,1,47,217.32c0,1.55,0,3.09.06,4.64a112.71,112.71,0,0,0,7.31,9.44.09.09,0,0,1-.12.12,74.75,74.75,0,0,1-7.22-7c0,.83,0,1.65,0,2.49,4.38,5.65,8.38,11.7,12.48,17.47C62.71,249,66,253.48,69.13,258.09Z" transform="translate(-9.8 -10.02)"/><path class="cls-13" d="M78,272.19c-2.4-2.58-4.67-5.26-6.88-8l-.53.18-.42-.62c-1.76-2.58-3.8-5.5-5.83-8.41-4.31-5.85-8.5-11.8-12.87-17.58.08,1.48.15,3,.2,4.41,4.06,6.16,8.09,12.31,13.06,17.79.15.17-.09.42-.25.25a115.22,115.22,0,0,1-12.71-15.13c0,1.54,0,3.08.05,4.63a112.71,112.71,0,0,0,7.31,9.44.09.09,0,0,1-.12.12,74.54,74.54,0,0,1-7.21-7c0,.82,0,1.64,0,2.48,4.38,5.66,8.38,11.7,12.48,17.47,4,5.6,8.09,11.23,11.87,17a110.88,110.88,0,0,1,2.19-16.73Z" transform="translate(-9.8 -10.02)"/><path class="cls-12" d="M129.2,261.36c.26,2.3.32,4.63.43,6.94a41,41,0,0,1,.06,7.59q7.35-1.71,14.7-3.36l7.47-1.65A96.65,96.65,0,0,1,153,256.07c-3.43.74-6.86,1.47-10.29,2.23C138.23,259.3,133.71,260.33,129.2,261.36Z" transform="translate(-9.8 -10.02)"/><path class="cls-14" d="M201.37,256.58c-4,1-8.09,1.65-12.1,2.6a.17.17,0,0,1-.09-.33,96.85,96.85,0,0,1,11.88-3.4.72.72,0,0,1,.3,0c0-.82,0-1.63,0-2.44-3.65,1.17-7.48,1.94-11.18,2.89a.23.23,0,0,1-.12-.45c3.72-1.23,7.47-2.68,11.27-3.66,0-.63,0-1.27,0-1.92-5.5,1.45-11.31,2.11-16.88,3.3a.25.25,0,0,1-.14-.49c5.53-1.54,11.27-3.42,17-4.16,0-1.07,0-2.14,0-3.2-7.28,2.1-14.75,3.66-22.1,5.2q-12.59,2.64-25.15,5.34a61.76,61.76,0,0,1,0,14.57c15.93-3.45,31.89-6.66,47.62-10.86,0-1-.07-2-.09-3Z" transform="translate(-9.8 -10.02)"/><path class="cls-7" d="M199.3,243.34a89.28,89.28,0,0,1-9.86-7.16l-2.22.52c1.05.73,2.08,1.48,3.09,2.08.45.26.12.83-.32.77a11.93,11.93,0,0,1-5.12-2.34q-3.69.81-7.35,1.57-14.36,3-28.69,6.1a.86.86,0,0,1-1.2.27l-1,.22a25,25,0,0,1,3.24,3.27c.38.42.78.84,1.19,1.28a193.56,193.56,0,0,1,33.53-7.9.32.32,0,0,1,.17.61,162.64,162.64,0,0,1-33.22,7.81,16.39,16.39,0,0,1,2.46,3.32C169.13,250.5,184.32,247.38,199.3,243.34Z" transform="translate(-9.8 -10.02)"/><path class="cls-7" d="M96.06,208.41c5.37-1.34,10.91-2.34,16-3.73q15-4.05,29.85-8.6h0c-3.55-2.75-7-5.71-10.33-8.71a.51.51,0,0,1-.26.28c-11.11,4.53-25.17-6.34-20.42-18.3q-2.84-2.43-5.63-4.89a.67.67,0,0,1-.45.58c-3.71,1.49-8,2-11.94,2.92a.29.29,0,0,1-.15-.56c3.82-1.21,7.8-3,11.75-3.6h0q-2-1.73-3.87-3.48-8.72,2-17.47,3.77c-8.41,1.72-16.68,3.4-25.16,3.75,7.36,8.89,14.24,18.16,22.23,26.54A127.5,127.5,0,0,0,96.06,208.41Zm-28.69-34.9c-1.06.14-1.49-1.51-.39-1.73,6.66-1.33,13.45-3.15,20.25-3.5.18,0,.19.23,0,.29-6.09,2.31-12.72,3.4-19.09,4.79,4.43,5.1,8.29,10.61,13,15.51a144.6,144.6,0,0,0,15.5,13.76.5.5,0,0,1,.19.35c6.51-2,13.14-3.52,19.62-5.74,6.14-2.11,12.51-4.67,19.06-4.81a.54.54,0,0,1,.14,1.06c-6.8,2-13.65,3.78-20.41,6-6,2-12.48,4.46-18.85,4.14a.51.51,0,0,1-.5-.05C85,196.07,73.42,185.58,67.37,173.51Z" transform="translate(-9.8 -10.02)"/><path class="cls-2" d="M157.22,147.58c-15.46,2.75-30.3,8.11-45.41,12.29-6.35,1.76-12.76,3.33-19.18,4.87-8.46,1.82-16.94,3.51-25.55,4.84a2.34,2.34,0,0,0-1.4,3.43c4.93,7.51,10.68,14.48,18.15,19.56.29.19.68-.19.48-.48C80,185.93,75.48,180,71.51,173.6a156.2,156.2,0,0,0,23-5.3c6.2-1.24,12.37-2.63,18.52-4.06,15.36-3.58,31-7.35,45-14.69C159.19,149,158.35,147.38,157.22,147.58Z" transform="translate(-9.8 -10.02)"/><path class="cls-13" d="M116.2,183.57c4.26,3.61,9.49,3.76,14.72,3.18-3-2.73-6.06-5.47-9.13-8.12-3.35-2.88-6.72-5.74-10.09-8.62A14.09,14.09,0,0,0,116.2,183.57Z" transform="translate(-9.8 -10.02)"/><path class="cls-7" d="M58.61,172.59a27.28,27.28,0,0,1-3.26,0,15.15,15.15,0,0,1-2.57-.2c5.8,5.6,11.66,11.1,17.75,16.32A195.72,195.72,0,0,1,58.61,172.59Z" transform="translate(-9.8 -10.02)"/><path class="cls-13" d="M93,211.18l0-.47a122.32,122.32,0,0,1-14-12.43c-10.11-6.48-18.33-15.45-26.27-24.39q.34,3.08.62,6.2a.7.7,0,0,1,.64.23,89.23,89.23,0,0,0,9.93,8.8c.32.25,0,.79-.32.56a107.19,107.19,0,0,1-10.09-7.63c.09,1.15.17,2.3.23,3.46,4.57,2.9,8.73,6.76,13,10.08.21.17-.07.54-.3.38-4.07-2.81-8.54-5.29-12.56-8.21,0,.74.06,1.48.08,2.22,2.59,2.3,5.38,4.35,8,6.61.12.11,0,.33-.18.24-2.58-1.68-5.1-3.42-7.78-4.9,0,.92,0,1.84,0,2.76,12.76,11.21,26.33,21.41,40,31.45C93.57,221.19,93.27,216.16,93,211.18Z" transform="translate(-9.8 -10.02)"/><path class="cls-11" d="M200.24,176.24c0-.15-.06-.31-.09-.47C181.09,183,162,189.89,142.51,195.91c-10.09,3.12-20.23,6-30.42,8.77-5.47,1.48-11.42,2.5-17.13,4l-2,.55.09,2c.27,5.8.61,11.67,1.26,17.41h.17v0c.94,0,1.88-.09,2.82-.08a147,147,0,0,0-2-17.77c1.43-.29,2.85-.58,4.26-.91,5-1.16,10-2.39,14.91-3.65,10.22-2.61,20.37-5.5,30.47-8.57,18.88-5.74,37.67-12.12,56-19.54A6.3,6.3,0,0,1,200.24,176.24Z" transform="translate(-9.8 -10.02)"/><path class="cls-11" d="M84.3,199.66c-11.66-8.4-22.11-18.13-32.44-28.11-.41-.4-1,.2-.62.62C60.81,183,70.63,194,83.55,200.94A.74.74,0,0,0,84.3,199.66Z" transform="translate(-9.8 -10.02)"/><path class="cls-11" d="M202.69,179.62l-.31-4.08-2-1.57c-13.57-10.42-26.22-22.05-40.5-31.43l-4.6-1.38a350.49,350.49,0,0,1-40.55,13c-9.77,2.51-19.61,4.75-29.47,6.92-9.3,2-18.76,4.55-28.3,5.41l-2.13.16.8,1.28c.58.92,1.17,1.84,1.77,2.77L55,170.9a32.81,32.81,0,0,0-3.57.28v21.19l.14,1.6L54,196.23C66.67,207.91,79.78,219.17,93.91,229l1.53,1.06,3.08-.65c18.81-4,37.27-10.25,55.63-15.8,15.51-4.68,31-9.43,46.38-14.71l2.66-.93.06-2.85C203.3,190,203.06,184.78,202.69,179.62Zm-49.23,31.47c-18.76,5.79-37.52,12.21-56.55,17.15C82.26,217.51,67.69,206.68,54,194.69A180.05,180.05,0,0,0,52.6,172.4a13.56,13.56,0,0,0,2.75.23,27.28,27.28,0,0,0,3.26,0C68.15,187,79.87,201,93.78,211.3a2.46,2.46,0,0,1,1.26-.94,6.94,6.94,0,0,0,2.13-1.09,127.15,127.15,0,0,1-16.89-14.89c-8-8.38-14.87-17.65-22.23-26.54,8.48-.35,16.75-2,25.16-3.75,10.78-2.21,21.54-4.58,32.2-7.3a333.91,333.91,0,0,0,42.8-13.58c14.78,10.46,27.31,24.1,42,34.67-.2,6.06-.25,12.2.13,18.2C184.73,201.18,169.13,206.25,153.46,211.09Z" transform="translate(-9.8 -10.02)"/><path class="cls-11" d="M143.74,195.67c-6.77-7-14.67-13.23-22.1-19.57-7-6-14.11-12-21.53-17.58-.44-.33-1,.4-.59.76,7.24,6.65,14.82,12.94,22.27,19.35,7,6,13.71,12.59,21.08,18.17C143.53,197.31,144.28,196.24,143.74,195.67Z" transform="translate(-9.8 -10.02)"/><path class="cls-11" d="M167.44,187.94c-6.38-7-13.93-12.67-21.38-18.44-3.91-3-7.72-6.17-11.31-9.57-3.23-3.06-6.26-6.06-10.31-8-.53-.26-1,.52-.47.81,4.36,2.36,7.31,6.11,10.82,9.49a131.73,131.73,0,0,0,10.8,9.06c7.24,5.6,14.67,10.84,20.94,17.56C167.1,189.45,168,188.55,167.44,187.94Z" transform="translate(-9.8 -10.02)"/><path class="cls-11" d="M166.61,188.29c-.08-.45-.71-.3-.75.1-.64,6.61-1,13.49-1.21,20.13a.69.69,0,0,0,1.35.18A50.32,50.32,0,0,0,166.61,188.29Z" transform="translate(-9.8 -10.02)"/><path class="cls-11" d="M142.9,195.5c0-.46-.81-.65-.88-.12-1,7.21-1.54,14.58-2,21.84-.07,1.07,1.73,1.34,1.89.26A103,103,0,0,0,142.9,195.5Z" transform="translate(-9.8 -10.02)"/><path class="cls-11" d="M131.22,186.71c-5.33.63-10.68.53-15-3.14a14.18,14.18,0,0,1-4.35-14.28.42.42,0,0,0-.82-.22c-5.09,12.07,9.12,23.15,20.32,18.58C131.79,187.47,131.8,186.65,131.22,186.71Z" transform="translate(-9.8 -10.02)"/><path class="cls-11" d="M135,160.93a.33.33,0,0,0,.09.64c8.57-.53,14.6,5.09,15.31,13.49a.66.66,0,0,0,1.32,0C152.2,166.09,143.62,159.26,135,160.93Z" transform="translate(-9.8 -10.02)"/><path class="cls-11" d="M104.51,163.8c-4,.62-7.93,2.39-11.75,3.6a.29.29,0,0,0,.15.56c3.9-.91,8.23-1.43,11.94-2.92A.64.64,0,0,0,104.51,163.8Z" transform="translate(-9.8 -10.02)"/><path class="cls-11" d="M87.23,168.28c-6.8.35-13.59,2.17-20.25,3.5-1.13.22-.65,2,.48,1.73,6.59-1.46,13.49-2.54,19.81-4.94C87.42,168.51,87.41,168.27,87.23,168.28Z" transform="translate(-9.8 -10.02)"/><path class="cls-11" d="M96.66,202.63a144.6,144.6,0,0,1-15.5-13.76c-4.8-5-8.73-10.67-13.28-15.87-.28-.32-.73.08-.56.42,6,12.11,17.61,22.63,28.59,30.18C96.48,204,97.22,203.07,96.66,202.63Z" transform="translate(-9.8 -10.02)"/><path class="cls-11" d="M135.53,192.43c-6.55.14-12.92,2.7-19.06,4.81-6.73,2.3-13.62,3.83-20.37,6a.22.22,0,0,0,.05.43c6.46.4,13.07-2.12,19.11-4.13,6.76-2.24,13.61-4,20.41-6A.54.54,0,0,0,135.53,192.43Z" transform="translate(-9.8 -10.02)"/><path class="cls-11" d="M188.32,174.34c-8.49,2.27-17.16,6.07-25.29,9.39a.39.39,0,0,0,.21.76c8.43-2,17.94-4.83,25.52-9.11A.57.57,0,0,0,188.32,174.34Z" transform="translate(-9.8 -10.02)"/><path class="cls-11" d="M158.32,146.51c-9.38,3.16-18.82,6.43-28.1,9.88a.42.42,0,0,0,.23.81A170,170,0,0,0,158.93,148C159.75,147.61,159.16,146.23,158.32,146.51Z" transform="translate(-9.8 -10.02)"/><path class="cls-11" d="M172.44,158.37c-4.54-4.1-8.9-8.52-14.2-11.65a.69.69,0,0,0-.94.93l.12.2a.41.41,0,0,0,.45.19s0,0,.07,0c-.58.47,12.88,10.17,14,11C172.33,159.23,172.77,158.66,172.44,158.37Z" transform="translate(-9.8 -10.02)"/><path class="cls-11" d="M191,173.24c-4.44-4.7-9.77-8.78-14.66-13a.36.36,0,0,0-.51.51c4.29,4.83,9,9.92,14.36,13.54C190.8,174.72,191.47,173.77,191,173.24Z" transform="translate(-9.8 -10.02)"/><path class="cls-11" d="M200.68,180.73c-7.53,3-15.09,5.74-22.82,8.16a.24.24,0,0,0,.13.46,151.51,151.51,0,0,0,23.11-7.08C202,181.9,201.64,180.36,200.68,180.73Z" transform="translate(-9.8 -10.02)"/><path class="cls-11" d="M201.69,183.86c-5.85,2.36-11.63,4.88-17.47,7.26-.3.13-.18.63.15.51,5.88-2.16,11.82-4.19,17.7-6.37C203,184.93,202.55,183.51,201.69,183.86Z" transform="translate(-9.8 -10.02)"/><path class="cls-11" d="M200.6,187.89a150.06,150.06,0,0,1-15.75,6.92c-.35.13-.21.69.16.58a157.18,157.18,0,0,0,16.47-6C202.5,189,201.62,187.36,200.6,187.89Z" transform="translate(-9.8 -10.02)"/><path class="cls-11" d="M126.49,206.4c-6.37,1.7-12.74,3.4-19.09,5.15-2.91.8-5.82,1.64-8.75,2.36-1.39.34-3.86.25-4.91,1.38-.47.51-.19,1.62.64,1.53h.11a1.11,1.11,0,0,0,.42-.15c2.15-1.08,5.25-1.29,7.56-2l8-2.48c5.4-1.67,10.79-3.38,16.17-5.08A.37.37,0,0,0,126.49,206.4Z" transform="translate(-9.8 -10.02)"/><path class="cls-11" d="M115.88,213.92c-6.94,2.11-14,3.22-21,4.8-1,.22-.79,1.93.24,1.79,7.15-.95,14.24-3.39,21-5.85C116.54,214.5,116.36,213.78,115.88,213.92Z" transform="translate(-9.8 -10.02)"/><path class="cls-11" d="M113.76,219.52a103.67,103.67,0,0,1-17.94,3.85c-.87.11-.92,1.45,0,1.41,6.2-.29,12.3-2.7,18.07-4.79C114.18,219.88,114.07,219.43,113.76,219.52Z" transform="translate(-9.8 -10.02)"/><path class="cls-11" d="M64,189.12a89.23,89.23,0,0,1-9.93-8.8c-.74-.77-2,.47-1.16,1.16a108.4,108.4,0,0,0,10.77,8.2C64,189.91,64.28,189.37,64,189.12Z" transform="translate(-9.8 -10.02)"/><path class="cls-11" d="M66.76,195.59c-4.5-3.52-8.91-7.66-13.8-10.61-.78-.47-1.75.7-1,1.3,4.48,3.6,9.76,6.42,14.5,9.69C66.69,196.13,67,195.76,66.76,195.59Z" transform="translate(-9.8 -10.02)"/><path class="cls-11" d="M62,196.59c-2.64-2.27-5.44-4.33-8-6.63-1-.86-2.12.79-1,1.35a99.74,99.74,0,0,1,8.9,5.52C62,196.92,62.11,196.7,62,196.59Z" transform="translate(-9.8 -10.02)"/><path class="cls-11" d="M199.05,231.23c-.23-2.53-.52-5.06-.68-7.57-.13-2-.17-4-.26-6l-.17-2.86-1.36-.88a135.76,135.76,0,0,0-16-9.5.11.11,0,0,0-.13.17,88.68,88.68,0,0,0,16,12.13c0,2.64.09,5.3.15,7.91,0,2.37.06,4.78.17,7.18-18.85,5-38,8.64-57.09,12.93-22.81,5.14-45.62,10.56-68.1,17-3.83-5.92-8-11.65-12.08-17.35S51.42,232.64,47,227c.12-6.43,0-12.58-.41-18.94,5.41-1.34,10.75-2.86,16-4.62a4.63,4.63,0,0,1-.89-.71,2.34,2.34,0,0,1-.47-.79c-4.93,1.75-9.86,3.47-14.85,5l-1.16.35,0,.72c-.35,5.21-.65,10.47-.82,15.72l-.06,2.36,2.59,4c3.82,5.76,7.94,11.38,11.74,17.08,3.4,5.1,8,11.49,11.43,16.58l.42.62,3-1c23-5.29,44.59-11.69,67.68-16.82,12.08-2.68,24.19-5.21,36.31-7.75,6.46-1.36,13-2.73,19.43-4.46l2.3-.63Z" transform="translate(-9.8 -10.02)"/><path class="cls-11" d="M196.85,217.45a3.19,3.19,0,0,0-.87-1.61,2,2,0,0,1-.39-.51c-19.48,5.31-39.31,9-59,13.45-20.31,4.58-40.62,9.38-60.7,14.94-5.29-6-10.57-12-15.4-18.49-4.33-5.81-8.37-13-14-18a2.73,2.73,0,0,1-.48.7,2.67,2.67,0,0,1-.49.38c9.25,12,17.47,25,27.8,36.1l.9.95,2.61-.61c20.42-4.75,40.8-9.7,61.28-14.24,12.08-2.68,24.2-5.21,36.31-7.75,7.48-1.57,15.09-3.15,22.49-5.31C196.86,217.47,196.85,217.46,196.85,217.45Z" transform="translate(-9.8 -10.02)"/><path class="cls-11" d="M72.12,262.65l0,0,0,0a3.3,3.3,0,0,1,.43-.19l.18-.08v0c.13,0,.26,0,.4-.06.2-6.71.9-13.38,1.18-20.09a.09.09,0,0,0-.18,0c-1.84,6.76-2.49,14-3,21A3.06,3.06,0,0,1,72.12,262.65Z" transform="translate(-9.8 -10.02)"/><path class="cls-11" d="M125.48,231.9c-.84-1.94-2.78-3.75-4.24-5.24s-3-3-4.86-3.53c-.13,0-.2.12-.13.22,1.33,1.65,3,3,4.32,4.67s2.09,3.6,3.54,4.94A.88.88,0,0,0,125.48,231.9Z" transform="translate(-9.8 -10.02)"/><path class="cls-11" d="M149.49,226.48c-.9-2.07-2.85-3.94-4.36-5.59-1.35-1.47-2.79-3.37-4.7-4.11-.13-.05-.27.11-.23.23.65,2,2.48,3.65,3.73,5.26s2.52,3.87,4.16,5.29A.9.9,0,0,0,149.49,226.48Z" transform="translate(-9.8 -10.02)"/><path class="cls-11" d="M124.94,240.55a66.38,66.38,0,0,0-.74-9,.27.27,0,0,0-.51,0,68,68,0,0,0-.49,9c0,3-.4,6.18.49,9.09a.53.53,0,0,0,1,0C125.5,246.71,125.07,243.55,124.94,240.55Z" transform="translate(-9.8 -10.02)"/><path class="cls-11" d="M149,226.72c0-.2-.35-.19-.39,0a95.21,95.21,0,0,0-1.49,17.68c0,1,1.62,1.27,1.77.24A61.85,61.85,0,0,0,149,226.72Z" transform="translate(-9.8 -10.02)"/><path class="cls-11" d="M77.15,238.84c-2.4-5.4-6.11-10.45-9.48-15.3-3-4.38-6-9.17-9.89-12.88a.17.17,0,0,0-.26.2c2.43,5.38,6.21,10.36,9.41,15.31,2.92,4.52,5.67,9.37,9.16,13.48C76.63,240.28,77.44,239.48,77.15,238.84Z" transform="translate(-9.8 -10.02)"/><path class="cls-11" d="M67.37,207.27a11.48,11.48,0,0,0-4.64,1.07c-1.08.41-2.47.79-3.07,1.82a.07.07,0,0,0,0,.1c1.17.36,2.56-.24,3.72-.47a22.71,22.71,0,0,0,4.38-.91C68.67,208.51,68.11,207.34,67.37,207.27Z" transform="translate(-9.8 -10.02)"/><path class="cls-11" d="M120.55,226.76c-15.2,3.61-30.62,7.4-45.14,13.25a.2.2,0,0,0,.11.38c15.23-3.72,30.2-8.44,45.45-12.11C122,228,121.54,226.52,120.55,226.76Z" transform="translate(-9.8 -10.02)"/><path class="cls-11" d="M179.85,214.27a193.12,193.12,0,0,0-34.37,8.17c-.21.07-.2.45.05.42a162.66,162.66,0,0,0,34.49-8A.31.31,0,0,0,179.85,214.27Z" transform="translate(-9.8 -10.02)"/><path class="cls-11" d="M185.62,211c-3-1.73-6-4.81-9.63-5a.25.25,0,0,0-.12.47c3,1.74,5.82,4.84,9.43,5.32C185.74,211.85,186.07,211.29,185.62,211Z" transform="translate(-9.8 -10.02)"/><path class="cls-11" d="M197,220.71c-5.89.69-11.81,2.65-17.51,4.23a.26.26,0,0,0,.14.5c5.79-1.24,11.84-1.89,17.54-3.47C197.88,221.79,197.78,220.63,197,220.71Z" transform="translate(-9.8 -10.02)"/><path class="cls-11" d="M197,224c-3.94,1-7.81,2.5-11.66,3.76a.24.24,0,0,0,.12.46c3.93-1,8-1.8,11.84-3.1A.58.58,0,0,0,197,224Z" transform="translate(-9.8 -10.02)"/><path class="cls-11" d="M196.37,227.7a96.85,96.85,0,0,0-11.88,3.4.17.17,0,0,0,.09.33c4-1,8.12-1.57,12.1-2.6C197.42,228.64,197.1,227.56,196.37,227.7Z" transform="translate(-9.8 -10.02)"/><path class="cls-11" d="M98.3,244.43q-12.51,2.44-24.94,5.27c-.76.17-.44,1.35.33,1.17q12.42-2.77,24.75-5.94C98.76,244.85,98.62,244.37,98.3,244.43Z" transform="translate(-9.8 -10.02)"/><path class="cls-11" d="M83.91,250.86c-3.64.8-7.3,1.35-11,2-.85.15-.5,1.47.35,1.29,3.61-.76,7.19-1.87,10.7-3A.17.17,0,0,0,83.91,250.86Z" transform="translate(-9.8 -10.02)"/><path class="cls-11" d="M90.83,252.58c-5.7,1.3-12.36,1.79-17.73,4-.52.22-.53,1.11.14,1.08,5.84-.33,12.13-3,17.71-4.68A.23.23,0,0,0,90.83,252.58Z" transform="translate(-9.8 -10.02)"/><path class="cls-11" d="M60,232.21c-5.1-5.62-9.22-12-13.38-18.28-.52-.79-1.78-.08-1.28.75,4,6.58,9.11,12.24,14.4,17.78A.18.18,0,0,0,60,232.21Z" transform="translate(-9.8 -10.02)"/><path class="cls-11" d="M54.4,231.4a120.61,120.61,0,0,1-7.79-10.1.87.87,0,1,0-1.37,1.06,69.24,69.24,0,0,0,9,9.16A.09.09,0,0,0,54.4,231.4Z" transform="translate(-9.8 -10.02)"/><path class="cls-11" d="M203.74,259c-.23-2.54-.52-5.07-.68-7.58-.13-2-.17-4-.26-6l-.17-2.86-1.35-.89c-3.77-2.47-7.56-4.95-11.45-7.13-.12.06-.24.13-.37.18l-.32.11a2.48,2.48,0,0,1-.79.42,89.43,89.43,0,0,0,12.81,9.22c0,2.64.09,5.3.15,7.91.05,2.37.06,4.78.17,7.18-18.85,5-38,8.64-57.09,12.94-22.81,5.13-45.62,10.55-68.1,17-3.83-5.92-8-11.65-12.08-17.35s-8.1-11.81-12.48-17.47c.12-6.43,0-12.57-.41-18.94l.13,0a4.59,4.59,0,0,1-.64-.61,2,2,0,0,1-.21-.3L50,235l0,.73c-.35,5.2-.65,10.46-.82,15.71l-.06,2.36,2.59,4c3.82,5.76,7.94,11.37,11.74,17.08,3.4,5.1,8,11.48,11.43,16.57l.42.62,3-1c23-5.29,44.59-11.69,67.68-16.81,12.08-2.68,24.2-5.21,36.31-7.76,6.46-1.35,13-2.72,19.43-4.46l2.3-.63Z" transform="translate(-9.8 -10.02)"/><path class="cls-11" d="M201.54,245.2a3.12,3.12,0,0,0-.87-1.6,2.08,2.08,0,0,1-.39-.52c-19.48,5.31-39.31,9-59,13.46-20.31,4.57-40.62,9.37-60.7,14.94-5.29-6-10.57-12-15.4-18.5-3.89-5.22-7.56-11.57-12.35-16.39A5.12,5.12,0,0,1,51,235.3a2.59,2.59,0,0,1-.32.42,3.14,3.14,0,0,1-.49.37c9.25,12,17.47,25,27.8,36.1l.9.95,2.61-.61c20.43-4.74,40.8-9.69,61.28-14.23,12.08-2.68,24.2-5.21,36.31-7.76,7.48-1.57,15.09-3.15,22.49-5.31C201.55,245.22,201.54,245.21,201.54,245.2Z" transform="translate(-9.8 -10.02)"/><path class="cls-11" d="M76.81,290.4l0,0,0,0a2.39,2.39,0,0,1,.43-.2l.18-.07v0c.13,0,.26,0,.4-.06.2-6.71.9-13.38,1.18-20.09a.09.09,0,0,0-.18,0c-1.84,6.76-2.49,14-3,21A3.06,3.06,0,0,1,76.81,290.4Z" transform="translate(-9.8 -10.02)"/><path class="cls-11" d="M130.17,259.65c-.84-1.93-2.78-3.75-4.24-5.24s-3-3-4.86-3.53c-.13,0-.2.12-.12.22,1.32,1.65,3,3,4.31,4.68s2.09,3.6,3.54,4.93A.88.88,0,0,0,130.17,259.65Z" transform="translate(-9.8 -10.02)"/><path class="cls-11" d="M154.18,254.24c-.9-2.08-2.85-3.94-4.36-5.6-1.35-1.47-2.79-3.37-4.69-4.11a.2.2,0,0,0-.24.24c.65,2,2.48,3.64,3.73,5.26s2.52,3.87,4.16,5.28A.89.89,0,0,0,154.18,254.24Z" transform="translate(-9.8 -10.02)"/><path class="cls-11" d="M129.63,268.3a66.36,66.36,0,0,0-.74-9,.27.27,0,0,0-.51,0,67.9,67.9,0,0,0-.49,9c0,3-.4,6.18.49,9.09a.53.53,0,0,0,1,0C130.19,274.46,129.76,271.31,129.63,268.3Z" transform="translate(-9.8 -10.02)"/><path class="cls-11" d="M153.72,254.47c0-.2-.35-.19-.39,0a94.36,94.36,0,0,0-1.48,17.68c0,1,1.61,1.27,1.76.24A61.85,61.85,0,0,0,153.72,254.47Z" transform="translate(-9.8 -10.02)"/><path class="cls-11" d="M78.91,261.05a3.11,3.11,0,0,1-.94.12l-1,.34a2.85,2.85,0,0,1-.48.13,59.51,59.51,0,0,0,4.26,5.76c.53.63,1.34-.17,1-.81A50.71,50.71,0,0,0,78.91,261.05Z" transform="translate(-9.8 -10.02)"/><path class="cls-11" d="M125.24,254.51c-15.2,3.61-30.62,7.4-45.14,13.25a.2.2,0,0,0,.11.38c15.23-3.72,30.2-8.44,45.45-12.11C126.65,255.8,126.23,254.28,125.24,254.51Z" transform="translate(-9.8 -10.02)"/><path class="cls-11" d="M184.54,242a193.12,193.12,0,0,0-34.37,8.17c-.21.08-.2.45.05.42a162.64,162.64,0,0,0,34.49-8A.32.32,0,0,0,184.54,242Z" transform="translate(-9.8 -10.02)"/><path class="cls-11" d="M190.31,238.78c-1.36-.8-2.74-1.88-4.19-2.83l-1.4.48h0a3.49,3.49,0,0,1-.77.11h0c1.87,1.37,3.8,2.7,6.06,3C190.43,239.61,190.76,239,190.31,238.78Z" transform="translate(-9.8 -10.02)"/><path class="cls-11" d="M201.73,248.47c-5.89.68-11.81,2.65-17.51,4.23a.25.25,0,0,0,.14.49c5.79-1.23,11.84-1.89,17.54-3.47C202.57,249.54,202.47,248.38,201.73,248.47Z" transform="translate(-9.8 -10.02)"/><path class="cls-11" d="M201.68,251.71c-3.94,1-7.81,2.49-11.66,3.76a.23.23,0,0,0,.12.45c3.93-1,8-1.8,11.84-3.1A.58.58,0,0,0,201.68,251.71Z" transform="translate(-9.8 -10.02)"/><path class="cls-11" d="M201.06,255.45a96.85,96.85,0,0,0-11.88,3.4.17.17,0,0,0,.09.33c4-.95,8.12-1.57,12.1-2.6C202.11,256.39,201.8,255.32,201.06,255.45Z" transform="translate(-9.8 -10.02)"/><path class="cls-11" d="M103,272.18q-12.51,2.44-24.94,5.27c-.76.18-.44,1.35.33,1.18q12.42-2.79,24.75-5.95C103.45,272.6,103.31,272.12,103,272.18Z" transform="translate(-9.8 -10.02)"/><path class="cls-11" d="M88.6,278.61c-3.64.8-7.3,1.36-11,2-.85.15-.5,1.47.35,1.29,3.61-.76,7.19-1.87,10.7-3A.17.17,0,0,0,88.6,278.61Z" transform="translate(-9.8 -10.02)"/><path class="cls-11" d="M95.52,280.33c-5.7,1.3-12.36,1.79-17.73,4.05-.52.22-.53,1.12.14,1.08,5.84-.32,12.13-3,17.71-4.68A.23.23,0,0,0,95.52,280.33Z" transform="translate(-9.8 -10.02)"/><path class="cls-11" d="M64.69,260c-5.1-5.62-9.22-12-13.38-18.28-.52-.79-1.78-.07-1.28.75,4,6.58,9.11,12.24,14.41,17.78C64.6,260.38,64.84,260.13,64.69,260Z" transform="translate(-9.8 -10.02)"/><path class="cls-11" d="M59.09,259.15a122.77,122.77,0,0,1-7.79-10.1.87.87,0,1,0-1.37,1.06,68.64,68.64,0,0,0,9,9.16A.09.09,0,0,0,59.09,259.15Z" transform="translate(-9.8 -10.02)"/><path class="cls-15" d="M273.83,79.83c-.38-.23-.68.32-.34.58l.86.59c.63,0,1.26,0,1.88,0A21.07,21.07,0,0,1,273.83,79.83Z" transform="translate(-9.8 -10.02)"/><path class="cls-15" d="M263,65a10,10,0,0,0-.83,1.41c-.12.26.14.59.42.42l.87-.53a7.57,7.57,0,0,0-.34-1C263.08,65.17,263,65.08,263,65Z" transform="translate(-9.8 -10.02)"/><path class="cls-8" d="M191.94,74c2,1.35,6.32,1,8.72,1,5.74.14,11.51,1.06,17.25.81a102.76,102.76,0,0,0,20.72-3.46,63.65,63.65,0,0,0,9-3.13c1.17-.49,2.4-.92,3.52-1.5a9,9,0,0,0,2.15-1.29c2.21-1.11,1.7-2.82-1.5-5.12l-4.52,4-5.39,1.25c-6.12,1.27-12.33,2.11-18.37,2.83a126.76,126.76,0,0,1-24.63.67L197.73,70l-6.59-.31L189.65,69C189.19,70.45,188,71.32,191.94,74Z" transform="translate(-9.8 -10.02)"/><path class="cls-2" d="M246.72,66.78C239.2,68.18,232,69,224.62,71.3c-.21.07-.24.41,0,.45,8.29,1.67,15.15-.23,22.65-3.67C248.06,67.73,247.47,66.64,246.72,66.78Z" transform="translate(-9.8 -10.02)"/><path class="cls-15" d="M253.77,59.41a9.43,9.43,0,0,0-2-.48,1.12,1.12,0,1,0-.3,2.21l.26.19.12-.11C252.53,60.63,253.15,60,253.77,59.41Z" transform="translate(-9.8 -10.02)"/><path class="cls-8" d="M263.14,71.46s0,0,0,.05c.42.06.85.11,1.27.14,2.88-2.76,20.24-13.92,20.49-4.9.12,4.18-7.74,5.83-10.61,6.28-3.42.54-8.27,1-11.42-1-.88,1.41-2.22,1.45-3.75,1.24q3.12,1.84,6,4c4.19,1,8.5,2,12.75,1.39,6.5-.94,15.87-7.8,9.58-14.65-6.47-7-17.28-1.67-24,2.35A8.05,8.05,0,0,1,263.14,71.46Z" transform="translate(-9.8 -10.02)"/><path class="cls-2" d="M283.67,61.47c-4.12-1.76-8.42.1-11.9,2.39a.32.32,0,0,0,.25.58c5.23-.91,14.46-4.42,14.59,4.11a.58.58,0,0,0,1.13.15A6.41,6.41,0,0,0,283.67,61.47Z" transform="translate(-9.8 -10.02)"/><path class="cls-15" d="M264.87,79.13c0,.12,0,.23,0,.34,1.39.38,2.83.72,4.28,1-1.33-1.12-2.68-2.2-4.08-3.24l-1.65-.38A4.36,4.36,0,0,1,264.87,79.13Z" transform="translate(-9.8 -10.02)"/><path class="cls-8" d="M276.48,87.36a45.28,45.28,0,0,0,12,1c4.86-.3,8.61-2,13.09-3.62.93-1.23.78-2.69-.47-4.38a5.13,5.13,0,0,1-.79.52,24.81,24.81,0,0,0-2.91,1.4A28.09,28.09,0,0,1,289.73,84c-5.4.47-10.81,0-15.38-3a33.35,33.35,0,0,1-5.16-.55A91.38,91.38,0,0,1,276.48,87.36Z" transform="translate(-9.8 -10.02)"/><path class="cls-15" d="M189.64,67.22a.28.28,0,0,0-.53,0,9.9,9.9,0,0,1-.58,1.18l1.12.57A2.74,2.74,0,0,0,189.64,67.22Z" transform="translate(-9.8 -10.02)"/><path class="cls-15" d="M262.34,71.4c-.1,0-.2.1-.11.18a6.26,6.26,0,0,0,.62.43,3.87,3.87,0,0,0,.27-.5Z" transform="translate(-9.8 -10.02)"/><path class="cls-15" d="M172.36,56a186.51,186.51,0,0,0,20.07,11.4c1.53,0,3.06,0,4.6.13A165.42,165.42,0,0,0,220,67.25a144.39,144.39,0,0,0,26.25-4.33c5.33-4.79,10.22-10.06,15.37-15.1a137,137,0,0,0,11-11.59c1.13-1.39,2.16-2.88,3.18-4.38-1-.55-1.95-1.09-2.88-1.67-2.35-1.48-4.5-3.32-6.87-4.75a13.51,13.51,0,0,0-7.73-1.69l-3.71.27-1.35-1.75c-2.59-3.41-5.16-6.71-9.26-7.38s-9.66.21-13.9.57a31.39,31.39,0,0,0-9.28,2.33L218,19l-1.11-1.16c-2.78-2.77-6-5-9.66-4.78-5.35.36-10.1,4.46-15,6.45-4.49,1.82-9.15,2.76-13.74,4.22-2.9.92-6.22,2.35-6.49,5.91a6.51,6.51,0,0,0,.3,2.29l1.2,2.58-2.23.79a139.86,139.86,0,0,0-17.12,7.64c1.54,1.15,3.1,2.25,4.57,3.33C163.21,49.55,167.73,52.85,172.36,56Zm65.54.53c2-10.67,6.95-21.28,12.22-30.69.42-.76,1.51-.09,1.14.67-4.67,9.76-8.22,20.24-11.89,30.42A.76.76,0,0,1,237.9,56.49ZM214.84,25.36a44.4,44.4,0,0,1,2.62,12.75c.5,5.38,1.37,10.68.78,16.08a.6.6,0,0,1-1.19,0c-.5-4.89-1.39-9.63-1.52-14.56-.13-4.76-.12-9.44-1.74-14C213.55,25,214.58,24.73,214.84,25.36Zm-27.5,6.86c2.68,5,5.84,9.65,8.87,14.44s5.24,10.11,7.52,15.35a1,1,0,0,1-1.7,1c-3.48-4.83-5.37-10.72-8.19-15.94-2.57-4.77-5.33-9.46-7-14.62A.29.29,0,0,1,187.34,32.22Z" transform="translate(-9.8 -10.02)"/><path class="cls-2" d="M223.33,20.1c5.66.13,11.6-2.29,17.1-1.63,7.1.86,2.64,5.06,2.74,11.17a18.68,18.68,0,0,0,5.19-2.55c.1.52,0,1,.16,1.49,5.88-1.61,10.07.17,15.91,2.31-2.13,3.57-6.18,6.32-8.68,10.07-2.35,3.53-4.72,7.19-7.36,10.48.82-4.77,2.77-9.77,2.06-14.71-1.79,5.45-7.32,10-10,15.23a66.33,66.33,0,0,1-3.63,7c-.62-8.2,4.26-22.27-.1-30-2.36-4.21-9-.86-13.39,1.18A34.85,34.85,0,0,1,223.33,20.1Z" transform="translate(-9.8 -10.02)"/><path class="cls-15" d="M336.61,253.84c-.12,1.5-.25,3-.43,4.45a1.19,1.19,0,0,1-2.38,0c-.72-8.55-.46-17.18-1.17-25.75A257.3,257.3,0,0,0,329,205.75a262.15,262.15,0,0,0-14.51-49.38,257.44,257.44,0,0,0-24.72-46.58c-8.88-13.27-19.11-25.9-32-35.46a16.61,16.61,0,0,1-5.11,3.38,35.24,35.24,0,0,1-3.39,1.36,91.13,91.13,0,0,1,14.57,17.19c.4.61-.56,1.14-1,.57a98.42,98.42,0,0,0-15.64-17.11,81.71,81.71,0,0,1-15.18,2.53c3.79,6.29,4.63,13.81,5.38,21,.06.54-.84.65-.94.13C235.14,96,233.57,89,229.7,82.46c-2.31.2-4.59.4-6.83.65-2.84.31-5.72.6-8.61.79-3.43,11.39-6.23,22-5.89,34.14,0,.75-1.11.73-1.16,0-.78-11.15.11-23.55,4.57-34a63.67,63.67,0,0,1-11.8-.5,109.71,109.71,0,0,0-10.62,23.28.52.52,0,0,1-1-.27,122.29,122.29,0,0,1,9.15-23.44,40.61,40.61,0,0,1-4-1A10.54,10.54,0,0,1,188.36,79a174.15,174.15,0,0,0-21.67,33.37c-12.55,25.07-19.43,52.72-21.16,80.65-1.73,27.75,2.28,54.33,9.66,81,.5,1.83-2.14,2.47-2.79.77-1.07-2.79-2-5.64-2.89-8.51a106.89,106.89,0,0,0-7.35,16.36,92.89,92.89,0,0,0-3,11.46c11.13-1.24,21.52-4.77,31.72-9.27-3.9-.91-7.66-2.29-10.31-5.23-.55-.62.34-1.52.92-.92,5.2,5.37,15.76,5.11,22.71,6.23,7.31,1.19,14.62,2.37,21.95,3.39,15.74,2.17,31.61,3.72,47.51,3.31a159.45,159.45,0,0,0,40.55-6.05c13.3-3.88,25-10.08,36.52-17.71,1.38-.92,3.05,1.24,1.77,2.29a93.06,93.06,0,0,1-22.17,13.45,70.57,70.57,0,0,0,34.25-3.92A84.41,84.41,0,0,0,336.61,253.84Z" transform="translate(-9.8 -10.02)"/><path class="cls-2" d="M255.93,87.29c3.68,3,7.43,8.74,10.23,12.67,7.66,10.73,13,23.33,18.24,35.51,6.07,14.14,7.78,28.86,11.46,43.66,3.27,13.17,3.49,27.44-.37,40.53-1.79,6.1-2.49,13.35-6,18.74-2.7,4.13-7.57,5.3-10.49,8.52,15.53-3.34,29-7.74,35.94-24,8.88-20.81-.77-41.12-7.79-60.4-9.35-25.64-18.27-51.66-39-70.3-3.35-3-11.37-7.91-12.66-12" transform="translate(-9.8 -10.02)"/><path class="cls-8" d="M259.28,71.13v0c.85.1,1.56.14,2-1a6.23,6.23,0,0,0,.12-3.15c-.35-1.77-2.34-4.65-4.24-3.26A5.46,5.46,0,0,1,256,66.69C257.64,67.75,259.37,69,259.28,71.13Z" transform="translate(-9.8 -10.02)"/><path class="cls-8" d="M202.72,81.47c6.39.73,12.92.09,19.29-.58,7-.73,14.19-1,21.1-2.41,3.65-.72,19.7-5.56,11.37-10.29a9.6,9.6,0,0,1-1.07.74C245.17,73.76,235,75.52,225.69,77a64.16,64.16,0,0,1-15.6.6c-4.92-.39-9.92-.14-14.81-.73a18.84,18.84,0,0,1-5.45-1.24C189.13,79.77,200.22,81.18,202.72,81.47Z" transform="translate(-9.8 -10.02)"/><path class="cls-2" d="M250.16,72.17c-5.23,2.9-12,3.81-17.69,5.76-.27.09-.25.55.07.53C239,78,246.06,78.07,251,73.25A.69.69,0,0,0,250.16,72.17Z" transform="translate(-9.8 -10.02)"/><path class="cls-16" d="M327.32,263.58c-.51-10.39,1.55-25.87-4.18-34.82C323,242.33,306.3,258,295.24,264c-15.81,8.69-34.78,5.3-51.59,3.5C229.5,266,217.87,261.69,206.59,253c-13-10.08-12.21-23-18.39-36.78-6.14,10.94-6.24,31.63-2.24,43.1-6.25-14.68-11.72-26.88-12.68-43.13-1-16.53-2.41-33.32-.74-49.85,2.21-21.83,14.37-46.17,28.14-62.66a142.18,142.18,0,0,0,3.12,21,37.77,37.77,0,0,0,3.23-10.1c-.37-10.19.76-21.12,4.75-30.48a63.67,63.67,0,0,1-11.8-.5,109.71,109.71,0,0,0-10.62,23.28.52.52,0,0,1-1-.27,122.29,122.29,0,0,1,9.15-23.44,40.61,40.61,0,0,1-4-1A10.54,10.54,0,0,1,188.36,79a174.15,174.15,0,0,0-21.67,33.37c-12.55,25.07-19.43,52.72-21.16,80.65-1.73,27.75,2.28,54.33,9.66,81,.5,1.83-2.14,2.47-2.79.77-1.07-2.79-2-5.64-2.89-8.51a106.89,106.89,0,0,0-7.35,16.36,92.89,92.89,0,0,0-3,11.46c11.13-1.24,21.52-4.77,31.72-9.27-3.9-.91-7.66-2.29-10.31-5.23-.55-.62.34-1.52.92-.92,5.2,5.37,15.76,5.11,22.71,6.23,7.31,1.19,14.62,2.37,21.95,3.39,15.74,2.17,31.61,3.72,47.51,3.31a159.45,159.45,0,0,0,40.55-6.05c13.3-3.88,25-10.08,36.52-17.71,1.38-.92,3.05,1.24,1.77,2.29a93.06,93.06,0,0,1-22.17,13.45,69.15,69.15,0,0,0,27.27-1.73C336,275.49,333.28,263.81,327.32,263.58Z" transform="translate(-9.8 -10.02)"/><path class="cls-16" d="M162.32,46a14.17,14.17,0,0,0-1.49,1.84c3.81,2.77,7.63,5.53,11.53,8.15a186.51,186.51,0,0,0,20.07,11.4c1.53,0,3.06,0,4.6.13A165.42,165.42,0,0,0,220,67.25q3.08-.24,6.15-.59c-3.6-10-6.94-21-7.71-31.76-.36.8-.69,1.61-1,2.42,0,.27.05.53.08.79.5,5.38,1.37,10.68.78,16.08a.6.6,0,0,1-1.19,0c-.41-4-1.08-7.91-1.38-11.9-1.87,6.1-3.2,12.43-5.75,18.29-4.61-10.37-9.88-34.1-25.13-27.8-1,7.72,5.58,17.38-5.23,13.22C173.06,43.5,168.82,39.1,162.32,46Zm25-13.75c2.68,5,5.84,9.65,8.87,14.44s5.24,10.11,7.52,15.35a1,1,0,0,1-1.7,1c-3.48-4.83-5.37-10.72-8.19-15.94-2.57-4.77-5.33-9.46-7-14.62A.29.29,0,0,1,187.34,32.22Z" transform="translate(-9.8 -10.02)"/><path class="cls-11" d="M291.35,65.35c-4.13-10.85-24.82-8.22-29.19,1.06-.12.26.14.59.42.42,6.6-4,18.11-10.22,24.86-2.88,6.29,6.85-3.08,13.71-9.58,14.65-4.81.69-9.69-.7-14.4-1.77a4.36,4.36,0,0,1,1.41,2.3c0,.12,0,.23,0,.34C271,81.15,278,82,283.57,79.08,288.58,76.46,293.69,71.5,291.35,65.35Z" transform="translate(-9.8 -10.02)"/><path class="cls-11" d="M264.39,71.65c-.69-.06-1.38-.13-2.05-.25-.1,0-.2.1-.11.18,3.1,2.45,8.39,2,12,1.45,2.87-.45,10.73-2.1,10.61-6.28C284.63,57.73,267.27,68.89,264.39,71.65Zm15.82-2.22a17.84,17.84,0,0,1-3,.91,28.72,28.72,0,0,1-4.67,1,45,45,0,0,1-6,.42c1.44-.78,2.75-1.73,4.14-2.65a36.6,36.6,0,0,1,3.59-2.19,16.2,16.2,0,0,1,3.63-1.42c2.34-.71,4.58-.68,5.1.54S281.89,68.69,280.21,69.43Z" transform="translate(-9.8 -10.02)"/><path class="cls-11" d="M302.27,78.64a.59.59,0,0,0-.7-.09c-8,4.37-19.53,6-27.74,1.28-.38-.23-.68.32-.34.58,4.74,3.5,10.5,4,16.24,3.55a28.09,28.09,0,0,0,7.68-1.64,24.81,24.81,0,0,1,2.91-1.4,5.13,5.13,0,0,0,.79-.52q2.08,2.84.11,4.8c-.35.47.38.94.78.59C304.38,83.74,304.11,81,302.27,78.64Z" transform="translate(-9.8 -10.02)"/><path class="cls-11" d="M301.61,84.77c-4.5,1.62-8.25,3.32-13.12,3.63A48.28,48.28,0,0,1,274.8,87a.32.32,0,0,0-.17.62c8.45,3.29,20,4,27.42-2.09C302.4,85.24,302,84.62,301.61,84.77Z" transform="translate(-9.8 -10.02)"/><path class="cls-11" d="M277.51,29.33c-3.12-2-6.6-3.67-9.18-5.59-2.77-2.06-4.44-3-8-2.66-1.3.13-2.59.34-3.87.57-3.81-4.67-7.24-9.63-13.75-9.84a79.56,79.56,0,0,0-13.87,1,27.09,27.09,0,0,0-9.45,3.45c-3.21-3.26-7.2-6-11.13-6.27-3.23-.2-6.38,1.39-9.1,2.93a65.53,65.53,0,0,1-14.41,6.1C180,20.45,173.16,21,170.26,25.66a7.68,7.68,0,0,0-.43,7.21,120.64,120.64,0,0,0-17.35,8.78l-1.54,1,1.45,1.27c1,.84,2,1.64,2.87,2.41,4.31,3.63,8.9,7,13.49,10.24a157.15,157.15,0,0,0,17.74,10.84l4.65,2.37,6.59.31,1.14.07a126.76,126.76,0,0,0,24.63-.67c6-.72,12.25-1.56,18.37-2.83l5.39-1.25,4.64-4.14c3.52-3.34,6.88-6.87,10.33-10.35A146.94,146.94,0,0,0,273.12,39.3a58.52,58.52,0,0,0,4.31-6.46L279,30.32Zm-4.93,6.9a137,137,0,0,1-11,11.59c-5.15,5-10,10.31-15.37,15.1A144.39,144.39,0,0,1,220,67.25a165.42,165.42,0,0,1-22.92.24c-1.54-.09-3.07-.12-4.6-.13A186.51,186.51,0,0,1,172.36,56c-4.63-3.11-9.15-6.41-13.66-9.7-1.47-1.08-3-2.18-4.57-3.33a139.86,139.86,0,0,1,17.12-7.64l2.23-.79-1.2-2.58a6.51,6.51,0,0,1-.3-2.29c.27-3.56,3.59-5,6.49-5.91,4.59-1.46,9.25-2.4,13.74-4.22,4.94-2,9.69-6.09,15-6.45,3.7-.24,6.88,2,9.66,4.78L218,19l2.76-1.21a31.39,31.39,0,0,1,9.28-2.33c4.24-.36,9.7-1.26,13.9-.57s6.67,4,9.26,7.38L254.57,24l3.71-.27A13.51,13.51,0,0,1,266,25.43c2.37,1.43,4.52,3.27,6.87,4.75.93.58,1.92,1.12,2.88,1.67C274.74,33.35,273.71,34.84,272.58,36.23Z" transform="translate(-9.8 -10.02)"/><path class="cls-11" d="M203.73,62c-2.28-5.24-4.46-10.5-7.52-15.35s-6.19-9.43-8.87-14.44a.29.29,0,0,0-.53.23c1.7,5.16,4.46,9.85,7,14.62,2.82,5.22,4.71,11.11,8.19,15.94A1,1,0,0,0,203.73,62Z" transform="translate(-9.8 -10.02)"/><path class="cls-11" d="M217.46,38.11a44.4,44.4,0,0,0-2.62-12.75c-.26-.63-1.29-.38-1.05.3,1.62,4.53,1.61,9.21,1.74,14,.13,4.93,1,9.67,1.52,14.56a.6.6,0,0,0,1.19,0C218.83,48.79,218,43.49,217.46,38.11Z" transform="translate(-9.8 -10.02)"/><path class="cls-11" d="M250.12,25.8c-5.27,9.41-10.2,20-12.22,30.69a.76.76,0,0,0,1.47.4c3.67-10.18,7.22-20.66,11.89-30.42C251.63,25.71,250.54,25,250.12,25.8Z" transform="translate(-9.8 -10.02)"/><path class="cls-11" d="M251.82,58.93a1.12,1.12,0,1,0-.3,2.21q5.16,3.6,1.76,5.31a9,9,0,0,1-2.15,1.29c-1.12.58-2.35,1-3.52,1.5a63.65,63.65,0,0,1-9,3.13,102.76,102.76,0,0,1-20.72,3.46c-5.74.25-11.51-.67-17.25-.81-2.4,0-6.72.35-8.72-1-5.31-3.59-1.36-3.94-2.3-6.8a.28.28,0,0,0-.53,0c-.85,2.17-3.09,4.09-1.59,6.54s5.34,2.83,7.76,3.12c4.89.59,9.89.34,14.81.73a64.16,64.16,0,0,0,15.6-.6c9.27-1.49,19.48-3.25,27.72-8.08C258.71,65.82,258.46,59.83,251.82,58.93Z" transform="translate(-9.8 -10.02)"/><path class="cls-11" d="M255.17,66.18c-1.14-.74-2.25,1.18-1.06,1.81,9.19,4.79-7.29,9.76-11,10.49-6.91,1.36-14.1,1.68-21.1,2.41-6.37.67-12.9,1.31-19.29.58-2.79-.32-16.28-2-12.15-7.37a.52.52,0,0,0-.73-.73c-4.87,3.95-1,7.28,3.66,8.72,9.5,3,19.65,2.09,29.37,1s20.65-1.17,29.8-5.4c2.47-1.13,6.49-3.37,6.61-6.58C259.39,68.6,257,67.38,255.17,66.18Z" transform="translate(-9.8 -10.02)"/><path class="cls-11" d="M263.11,65.25c-.69-1.67-2-3.31-3.94-3.49-1.46-.13-3.22.51-3.43,2.11-.06.45.61.69.89.37,2-2.32,4.34.91,4.72,2.83a6.23,6.23,0,0,1-.12,3.15c-.52,1.46-1.62.9-2.86.85s-1.44,1.84-.27,2c2.12.34,4,.69,5-1.64A8.24,8.24,0,0,0,263.11,65.25Z" transform="translate(-9.8 -10.02)"/><path class="cls-11" d="M166.69,112.37a174.3,174.3,0,0,1,22-33.82,3,3,0,0,1-.6-1.14c-38,39.13-50.55,98.85-45.4,151.83,1.49,15.34,4.17,31.1,9.68,45.55.65,1.7,3.29,1.06,2.79-.77-7.38-26.67-11.39-53.25-9.66-81C147.26,165.09,154.14,137.44,166.69,112.37Z" transform="translate(-9.8 -10.02)"/><path class="cls-11" d="M171.34,284.64c-10.34,4.59-20.87,8.2-32.16,9.46a92.89,92.89,0,0,1,3-11.46A119.08,119.08,0,0,1,151,263.46a3.65,3.65,0,0,1-1.35-2.76v-.05c-7,9.47-12,21.7-14.3,33.79l-.45,2.52,3.72,0c13-.39,27.17-5.36,39.19-11.23C175.48,285.91,174,284.75,171.34,284.64Z" transform="translate(-9.8 -10.02)"/><path class="cls-11" d="M330.75,267.85c-11.48,7.63-23.22,13.83-36.52,17.71a159.45,159.45,0,0,1-40.55,6.05c-15.9.41-31.77-1.14-47.51-3.31-7.33-1-14.64-2.2-21.95-3.39-6.95-1.12-17.51-.86-22.71-6.23-.58-.6-1.47.3-.92.92,4.47,5,12.08,5.5,18.24,6.78,8.17,1.7,16.38,3.24,24.63,4.57,16.27,2.63,32.76,4.33,49.26,4,27.53-.52,58.08-6.81,79.8-24.82C333.8,269.09,332.13,266.93,330.75,267.85Z" transform="translate(-9.8 -10.02)"/><path class="cls-11" d="M348.18,278.26a75.19,75.19,0,0,0-12.63-31l0,.22a1.42,1.42,0,0,1-.23.58c-.05.17-.1.34-.16.51a1.43,1.43,0,0,1-.87.85,83.25,83.25,0,0,1,10.34,30.21,69.77,69.77,0,0,1-38.38,3.21,8.22,8.22,0,0,1-1.14,1.6A66.32,66.32,0,0,0,345,283.06l3.61-1.46Z" transform="translate(-9.8 -10.02)"/><path class="cls-11" d="M332.25,204.86a260.81,260.81,0,0,0-15.76-52.59,253.19,253.19,0,0,0-25.74-47c-8.92-12.81-19.1-24.95-32.8-32.67a3.59,3.59,0,0,1-.65,1.4c13.1,9.6,23.46,22.38,32.46,35.82a257.44,257.44,0,0,1,24.72,46.58A262.15,262.15,0,0,1,329,205.75a257.3,257.3,0,0,1,3.64,26.79c.71,8.57.45,17.2,1.17,25.75a1.19,1.19,0,0,0,2.38,0C338.32,240.94,335.44,221.93,332.25,204.86Z" transform="translate(-9.8 -10.02)"/><path class="cls-11" d="M198.08,82a120.38,120.38,0,0,0-9.72,24.54.52.52,0,0,0,1,.27,109.84,109.84,0,0,1,10.8-23.59C201,81.89,198.82,80.65,198.08,82Z" transform="translate(-9.8 -10.02)"/><path class="cls-11" d="M212.53,82.35c-5.11,10.79-6.14,23.94-5.32,35.69,0,.73,1.18.75,1.16,0-.35-12.36,2.57-23.2,6.11-34.86C214.83,82,213.05,81.24,212.53,82.35Z" transform="translate(-9.8 -10.02)"/><path class="cls-11" d="M231.41,81.23c-.74-1.11-2.51-.11-1.81,1.06,4,6.59,5.52,13.62,6.89,21.09.1.52,1,.41.94-.13C236.64,95.67,235.75,87.72,231.41,81.23Z" transform="translate(-9.8 -10.02)"/><path class="cls-11" d="M263.85,96.26A90.45,90.45,0,0,0,248.33,78.2c-.9-.8-2.23.54-1.32,1.33a98.25,98.25,0,0,1,15.86,17.3C263.29,97.4,264.25,96.87,263.85,96.26Z" transform="translate(-9.8 -10.02)"/><path class="cls-8" d="M365.73,292.44,360,318s13.89-6.62,23.9-10.51c7.35-2.86,14.65-5.82,22-8.78-3.07-6.15-6.12-12.31-9.24-18.44C386.32,284.27,365.73,292.44,365.73,292.44Z" transform="translate(-9.8 -10.02)"/><path class="cls-17" d="M305,280.53c19.86,3.42,40,6.36,59.75,10.5l.18-.38,1.94-.86Q379.77,284.06,393,279c-17.09-3.19-34.19-6.35-51.33-9.36q-19-3.33-38-6.72c-7.75-1.38-15.81-3.48-23.85-4.81-9.31,4.52-18.74,8.94-28.24,13,5,.88,9.91,2,14.63,2.77Q285.58,277.2,305,280.53Z" transform="translate(-9.8 -10.02)"/><path class="cls-2" d="M365.07,273.83c-1.81.44-3.61.86-5.4,1.2q-10.68,2.06-21.47,3.34c-6.92.83-13.85,1.56-20.78,2.32-2.43.27-5,.41-7.65.65,7.72,1.3,15.47,2.56,23.21,3.85,2-.25,4-.53,6-.83,7.42-1.11,14.81-2.42,22.16-3.88,5.78-1.15,12.12-2.05,17.77-4.1Z" transform="translate(-9.8 -10.02)"/><path class="cls-2" d="M298.15,277.91q3-.2,6.06-.33c18.21-.8,36.53-1.14,54.44-4.91q-8.5-1.55-17-3-13.63-2.38-27.28-4.82c-4.18.16-8.36.31-12.53.49-16.52.72-32.7,3.11-49,5.28l-1.26.56c5,.88,9.91,2,14.63,2.77q13.4,2.26,26.78,4.56Z" transform="translate(-9.8 -10.02)"/><path class="cls-12" d="M307.21,283.67q-19-3.33-38-6.72c-6.88-1.23-14-3-21.12-4.33l-1.74.74c-3.89,8.25-7.7,16.53-11.54,24.8,6.45.91,12.9,2.45,19,3.48q19.41,3.28,38.81,6.62c18.41,3.17,59.28,9.87,63.82,10.61l7.05-24.93C344.74,290.44,326,287,307.21,283.67Z" transform="translate(-9.8 -10.02)"/><path class="cls-11" d="M408.55,297.62c-3.07-6.16-6.47-12.2-10.05-18.08l-1.34-2.16-1.68.63q-14.46,5.48-28.63,11.78l-1.94.86-1.23,2.62-7.41,26.2-1.18,2.25,3.61-1.09c18.5-5.65,30.61-11.74,48.51-19.29l2.61-1.1Zm-24.63,9.86C373.91,311.37,360,318,360,318l5.71-25.55s20.59-8.17,30.91-12.18c3.12,6.13,6.17,12.29,9.24,18.44C398.57,301.66,391.27,304.62,383.92,307.48Z" transform="translate(-9.8 -10.02)"/><path class="cls-11" d="M305,280.53q-19.39-3.34-38.81-6.62c-5.59-1-11.49-2.33-17.42-3.25a2.4,2.4,0,0,1-1,1.48l-.49.32c7.4,1.33,14.81,3.21,21.95,4.49q19,3.39,38,6.72c19.1,3.35,38.16,6.89,57.22,10.45a1.42,1.42,0,0,1,0-.2,5.27,5.27,0,0,0,.19-.51,2.83,2.83,0,0,1,.24-.67,7.11,7.11,0,0,0,.2-1.21,2,2,0,0,1,.13-.39C345.28,286.94,325,284,305,280.53Z" transform="translate(-9.8 -10.02)"/><path class="cls-11" d="M357.5,319.13a2.06,2.06,0,0,1,0-.43,1.86,1.86,0,0,1,0-.41c0-.22-.64.65-.64.65s-44.73-7.32-64.24-10.68q-19.41-3.35-38.81-6.62c-6.1-1-12.55-2.57-19-3.48,3.84-8.27,7.65-16.55,11.54-24.8,11.27-4.69,22.42-9.91,33.43-15.26,8,1.33,16.1,3.43,23.85,4.81q19,3.39,38,6.72c18.7,3.28,37.36,6.75,56,10.23a5.83,5.83,0,0,1,0-.59,7.89,7.89,0,0,1-.06-1.82,1.92,1.92,0,0,1,.1-.75c-19.32-4-38.94-6.87-58.31-10.21q-19.39-3.35-38.81-6.62c-5.68-1-11.68-2.36-17.7-3.29l-5.5-.69-3.17,1.44c-8.81,4-17.58,8.1-26.17,12.47l-2.59,1.34-1.85,3.37c-4.15,7.64-8.13,15.4-11.8,23.27l-.81,1.77,2.94.48c7.72,1.33,15.46,3.33,22.9,4.65q19,3.39,38,6.72c19.11,3.35,41.41,6.71,60.48,10.27C354.76,321.24,357.5,319.85,357.5,319.13Z" transform="translate(-9.8 -10.02)"/><path class="cls-12" d="M106.89,318.07a8.11,8.11,0,0,0,2,3.54c1.88,2.07,3,2.41,5.64,3a38.69,38.69,0,0,0,11.1.87,38.2,38.2,0,0,0,12.93-3.27c2.95-1.28,4.39-3,5.08-5.29-4.51,3.75-15.22,4.57-18.92,4.71C121.3,321.77,110.94,321.44,106.89,318.07Z" transform="translate(-9.8 -10.02)"/><path class="cls-8" d="M113.94,319.22a47.91,47.91,0,0,0,10.77.51,57.08,57.08,0,0,0,11.11-1.56,20.4,20.4,0,0,0,2.32-.64c3.26-.79,8-4.83,2.92-8.82-1.18-1-3.32-1.33-4.77-1.64a50.38,50.38,0,0,0-21,.47c-.61.21-1.23.42-1.81.66-1.44.62-3.53,1.44-4.54,2.74C104.23,317.06,111,318.68,113.94,319.22Z" transform="translate(-9.8 -10.02)"/><path class="cls-11" d="M144.68,309.74c-2.24-3.95-7.55-4.65-11.62-5.13a48.89,48.89,0,0,0-5.52-.31c-7.77-.2-16.79,1.27-20.69,6.57-7.44,10.15,12.82,11,17.86,10.77C130.11,321.44,150.37,319.78,144.68,309.74Zm-6.54,7.79a20.4,20.4,0,0,1-2.32.64,57.08,57.08,0,0,1-11.11,1.56,47.91,47.91,0,0,1-10.77-.51c-2.93-.54-9.71-2.16-5-8.28,1-1.3,3.1-2.12,4.54-2.74.58-.24,1.2-.45,1.81-.66a50.38,50.38,0,0,1,21-.47c1.45.31,3.59.65,4.77,1.64C146.14,312.7,141.4,316.74,138.14,317.53Z" transform="translate(-9.8 -10.02)"/><path class="cls-11" d="M145.69,312.44a.75.75,0,0,0-1.49,0c-.09,4.7-1,7.78-5.65,9.8a38.2,38.2,0,0,1-12.93,3.27,38.69,38.69,0,0,1-11.1-.87c-2.63-.6-3.76-.94-5.64-3-2.31-2.53-2.35-4.74-2.49-8.19a.3.3,0,0,0-.59,0c-.53,4-1,8.77,3.07,10.86,4.77,2.45,11.52,2.83,16.73,2.5s11.06-1.44,15.76-4.13C145.44,320.31,145.65,316.91,145.69,312.44Z" transform="translate(-9.8 -10.02)"/><path class="cls-12" d="M165,330.57a8.27,8.27,0,0,0,2,3.54c1.88,2.06,3,2.41,5.64,3a38.72,38.72,0,0,0,11.1.88,38.2,38.2,0,0,0,12.93-3.27c2.95-1.29,4.4-3,5.08-5.29-4.51,3.75-15.21,4.57-18.92,4.71C179.44,334.26,169.08,333.93,165,330.57Z" transform="translate(-9.8 -10.02)"/><path class="cls-8" d="M172.08,331.72a47.91,47.91,0,0,0,10.77.51A57.08,57.08,0,0,0,194,330.67a22.7,22.7,0,0,0,2.32-.64c3.26-.8,8-4.83,2.92-8.82-1.18-1-3.32-1.33-4.77-1.64a50.38,50.38,0,0,0-21,.47c-.61.21-1.23.42-1.81.66-1.44.62-3.53,1.44-4.54,2.74C162.37,329.56,169.15,331.18,172.08,331.72Z" transform="translate(-9.8 -10.02)"/><path class="cls-11" d="M202.82,322.24c-2.23-4-7.55-4.65-11.62-5.13a46.66,46.66,0,0,0-5.52-.31c-7.77-.2-16.79,1.26-20.68,6.57-7.45,10.15,12.81,11,17.85,10.77C188.25,333.94,208.51,332.28,202.82,322.24ZM196.28,330a22.7,22.7,0,0,1-2.32.64,57.08,57.08,0,0,1-11.11,1.56,47.91,47.91,0,0,1-10.77-.51c-2.93-.54-9.71-2.16-5-8.28,1-1.3,3.1-2.12,4.54-2.74.58-.24,1.2-.45,1.81-.66a50.38,50.38,0,0,1,21-.47c1.45.31,3.59.65,4.77,1.64C204.28,325.2,199.54,329.23,196.28,330Z" transform="translate(-9.8 -10.02)"/><path class="cls-11" d="M203.83,324.94a.75.75,0,0,0-1.49,0c-.09,4.71-1,7.79-5.65,9.81A38.2,38.2,0,0,1,183.76,338a38.72,38.72,0,0,1-11.1-.88c-2.63-.59-3.76-.94-5.64-3-2.31-2.53-2.35-4.75-2.49-8.2a.3.3,0,0,0-.59,0c-.53,4-1,8.77,3.07,10.86,4.77,2.45,11.52,2.83,16.73,2.5s11.06-1.44,15.76-4.13C203.58,332.81,203.79,329.41,203.83,324.94Z" transform="translate(-9.8 -10.02)"/><path class="cls-12" d="M50.65,337.63a8.11,8.11,0,0,0,2,3.54c1.88,2.07,3,2.41,5.64,3a38.71,38.71,0,0,0,11.1.87,38.2,38.2,0,0,0,12.93-3.27c3-1.28,4.39-3,5.08-5.29-4.51,3.75-15.22,4.57-18.92,4.71C65.06,341.33,54.7,341,50.65,337.63Z" transform="translate(-9.8 -10.02)"/><path class="cls-8" d="M57.7,338.78a47.33,47.33,0,0,0,10.77.51,57.08,57.08,0,0,0,11.11-1.56,20.4,20.4,0,0,0,2.32-.64c3.26-.79,8-4.83,2.92-8.82-1.18-1-3.32-1.33-4.77-1.64a50.55,50.55,0,0,0-21,.47c-.61.21-1.23.42-1.81.67-1.44.61-3.53,1.43-4.54,2.73C48,336.62,54.77,338.24,57.7,338.78Z" transform="translate(-9.8 -10.02)"/><path class="cls-11" d="M88.44,329.3c-2.24-3.95-7.55-4.65-11.62-5.12a46.69,46.69,0,0,0-5.52-.32c-7.77-.2-16.79,1.27-20.69,6.57-7.44,10.16,12.82,11,17.86,10.77C73.87,341,94.13,339.35,88.44,329.3Zm-6.54,7.79a20.4,20.4,0,0,1-2.32.64,57.08,57.08,0,0,1-11.11,1.56,47.33,47.33,0,0,1-10.77-.51c-2.93-.54-9.71-2.16-5-8.28,1-1.3,3.1-2.12,4.54-2.73.58-.25,1.2-.46,1.81-.67a50.55,50.55,0,0,1,21-.47c1.45.31,3.59.65,4.77,1.64C89.9,332.26,85.16,336.3,81.9,337.09Z" transform="translate(-9.8 -10.02)"/><path class="cls-11" d="M89.45,332A.75.75,0,0,0,88,332c-.09,4.71-1,7.78-5.65,9.8a38.2,38.2,0,0,1-12.93,3.27,38.71,38.71,0,0,1-11.1-.87c-2.63-.6-3.76-.94-5.64-3-2.31-2.53-2.35-4.74-2.49-8.19a.3.3,0,0,0-.59,0c-.53,4-1,8.77,3.07,10.86,4.77,2.45,11.52,2.83,16.73,2.5s11.06-1.44,15.76-4.13C89.2,339.87,89.41,336.47,89.45,332Z" transform="translate(-9.8 -10.02)"/><path class="cls-12" d="M24.94,310a7.57,7.57,0,0,0,1.83,3.27c1.74,1.9,2.78,2.22,5.2,2.77a35.88,35.88,0,0,0,10.23.8,35.19,35.19,0,0,0,11.91-3A7.45,7.45,0,0,0,58.79,309c-4.16,3.45-14,4.21-17.43,4.33C38.22,313.4,28.67,313.1,24.94,310Z" transform="translate(-9.8 -10.02)"/><path class="cls-8" d="M31.43,311.06a44.59,44.59,0,0,0,9.93.47,52.85,52.85,0,0,0,10.24-1.44c.72-.16,1.44-.36,2.14-.59,3-.73,7.37-4.45,2.68-8.13-1.08-.91-3.06-1.23-4.39-1.51a46.44,46.44,0,0,0-19.32.43c-.56.2-1.13.39-1.66.62-1.33.56-3.25,1.32-4.18,2.51C22.49,309.07,28.74,310.56,31.43,311.06Z" transform="translate(-9.8 -10.02)"/><path class="cls-11" d="M59.76,302.32c-2.06-3.64-7-4.28-10.7-4.72a43.8,43.8,0,0,0-5.09-.29c-7.16-.19-15.48,1.16-19.06,6.05-6.86,9.36,11.81,10.1,16.45,9.92C46.33,313.1,65,311.58,59.76,302.32Zm-6,7.18c-.7.23-1.42.43-2.14.59a52.85,52.85,0,0,1-10.24,1.44,44.59,44.59,0,0,1-9.93-.47c-2.69-.5-8.94-2-4.56-7.64.93-1.19,2.85-1.95,4.18-2.51.53-.23,1.1-.42,1.66-.62A46.44,46.44,0,0,1,52,299.86c1.33.28,3.31.6,4.39,1.51C61.11,305.05,56.74,308.77,53.74,309.5Z" transform="translate(-9.8 -10.02)"/><path class="cls-11" d="M60.69,304.81a.69.69,0,0,0-1.37,0c-.08,4.33-.94,7.17-5.21,9a35.19,35.19,0,0,1-11.91,3A35.88,35.88,0,0,1,32,316c-2.42-.55-3.46-.87-5.2-2.77-2.12-2.33-2.16-4.37-2.29-7.55a.27.27,0,0,0-.54,0c-.49,3.66-.91,8.08,2.83,10,4.39,2.26,10.61,2.61,15.41,2.3s10.19-1.33,14.52-3.8C60.46,312.06,60.65,308.93,60.69,304.81Z" transform="translate(-9.8 -10.02)"/><path class="cls-12" d="M10.88,232.44a5.48,5.48,0,0,0,1.31,2.32,5.6,5.6,0,0,0,3.69,2,24.74,24.74,0,0,0,15.72-1.56,5.32,5.32,0,0,0,3.32-3.46c-3,2.45-10,3-12.38,3.08C20.31,234.86,13.54,234.64,10.88,232.44Z" transform="translate(-9.8 -10.02)"/><path class="cls-8" d="M15.5,233.19a31.29,31.29,0,0,0,7,.34,37.13,37.13,0,0,0,7.27-1,13.71,13.71,0,0,0,1.52-.42c2.13-.52,5.23-3.16,1.9-5.77a7.58,7.58,0,0,0-3.12-1.07,33,33,0,0,0-13.7.3c-.4.14-.81.28-1.18.44a7.63,7.63,0,0,0-3,1.79C9.15,231.78,13.58,232.84,15.5,233.19Z" transform="translate(-9.8 -10.02)"/><path class="cls-11" d="M35.6,227c-1.46-2.58-4.94-3-7.6-3.35a29.18,29.18,0,0,0-3.6-.2c-5.09-.14-11,.82-13.54,4.29-4.86,6.64,8.39,7.17,11.68,7.05C26.07,234.64,39.32,233.56,35.6,227Zm-4.27,5.1a13.71,13.71,0,0,1-1.52.42,37.13,37.13,0,0,1-7.27,1,31.29,31.29,0,0,1-7-.34c-1.92-.35-6.35-1.41-3.25-5.41a7.63,7.63,0,0,1,3-1.79c.37-.16.78-.3,1.18-.44a33,33,0,0,1,13.7-.3,7.58,7.58,0,0,1,3.12,1.07C36.56,228.93,33.46,231.57,31.33,232.09Z" transform="translate(-9.8 -10.02)"/><path class="cls-11" d="M36.26,228.76a.49.49,0,0,0-1,0c-.06,3.08-.67,5.1-3.69,6.42a24.74,24.74,0,0,1-15.72,1.56,5.6,5.6,0,0,1-3.69-2c-1.51-1.66-1.54-3.11-1.63-5.36a.2.2,0,0,0-.39,0c-.34,2.6-.64,5.74,2,7.11,3.12,1.6,7.54,1.85,10.94,1.63a24.06,24.06,0,0,0,10.31-2.7C36.1,233.91,36.23,231.68,36.26,228.76Z" transform="translate(-9.8 -10.02)"/></svg>