<svg id="Layer_1" data-name="Layer 1" xmlns="http://www.w3.org/2000/svg" viewBox="0 0 250.54 150"><defs><style>.cls-1{fill:#fcfcfc;}.cls-2{fill:#fdf076;}.cls-3{fill:#a5d5a5;}.cls-4{fill:#a4d5a6;}.cls-5{fill:#fdd44f;}.cls-6{fill:#a1d4a3;}.cls-7{fill:#a6d6a8;}.cls-8{fill:#a4d5a5;}.cls-9{fill:#a2d4a4;}.cls-10{fill:#4baf4f;}.cls-11{fill:#4db051;}.cls-12{fill:#48ae4d;}.cls-13{fill:#49ae4d;}.cls-14{fill:#f0f7ef;}.cls-15{fill:#fdc00f;}.cls-16{fill:#fdbf06;}.cls-17{fill:#a3d4a5;}.cls-18{fill:#39a93f;}.cls-19{fill:#42ac47;}.cls-20{fill:#9ed3a0;}.cls-21{fill:#9dd29f;}.cls-22{fill:#fefefd;}.cls-23{fill:#a3d5a5;}</style></defs><title>money</title><path class="cls-1" d="M243.79,92.21l0,1.91V116H254.3V11.15H170.63l2.14-1.8h7.74V2l-2.72.23H140.56l-9.87,9.06q-49.48-.06-99-.08a13.57,13.57,0,0,0-2.6.47v9.74H51.77c2,0,4,.09,6,.09l61.17.13-1.07,1.69c-.5,0-1-.12-1.49-.12q-47.94,0-95.88,0c-1.12,0-2.24.19-3.45.3V34.18H38.79l2,0h64l1.13.36-1.29,1.65-6.84.1h-94V40.2q0,50,0,100l1,.93,90.05,0,.47.06.47-.06a4,4,0,0,0,.78.17c.13,3.57.26,7.15.4,10.76h38l9.63-8.06-.44-.89h-8.25l-.11-1.91,1-.08,91.05,0,.94-.92.23-12,1.82,0h10.71v-105H157.81l1.89-1.54q21.62,0,43.21-.07c9.44,0,18.88-.14,28.31-.21l12.52,1.26V34.18l0,1Z" transform="translate(-3.76 -2.04)"/><path class="cls-2" d="M95.88,55.17c.34-3.66.67-7.32,1-11l37.91,0,.78,10.22V123q0,6.66,0,13.32l.12,3.91a4.68,4.68,0,0,0,0,1l.11,1.91c-.31,3-.62,6-.94,8.95h-38c-.14-3.61-.27-7.19-.4-10.76-.06-1.78-.13-3.56-.19-5.34q-.22-6.85-.44-13.71a18,18,0,0,0,.78-3.71" transform="translate(-3.76 -2.04)"/><path class="cls-3" d="M96.32,135.94c.06,1.78.13,3.56.19,5.34a4,4,0,0,1-.78-.17h-.94l-90.05,0-1-.93q0-50,0-100l4-3.88h90c.36,1.64.71,3.29,1.06,4.93l-.12.18h-71c-2.11,4.34-3.29,9.18-6.28,12.23s-8,4.65-12.42,7v56.55c4.23,2.09,9.07,3.28,12.08,6.29s4.55,8,6.94,12.6h7Z" transform="translate(-3.76 -2.04)"/><path class="cls-4" d="M135.72,140.19l-.12-3.91h69.76c1.27-11.63,8.18-16.85,17.92-18.51V59.55c-11-1.7-15.34-6-18.24-18.29H138.79L144.07,36c2,.06,4,.17,6,.17l77.75.13.89.87q.06,26.63.11,53.24,0,18.92.16,37.81-.12,6-.23,12l-.94.92-91.05,0Z" transform="translate(-3.76 -2.04)"/><path class="cls-5" d="M144.07,36l-5.28,5.25-4,3-37.91,0,1.81-2.77.12-.18,5.78-5,1.29-1.65a7.13,7.13,0,0,0,.81-.54l5.14-4.83,6-5.83,1.07-1.69L124,18l6.73-6.71,9.87-9.06h37.23l-5,7.08-2.14,1.8-6,5.68-5,4.79-1.89,1.54-6.08,5.78-2,2.06-3.06,3.31Z" transform="translate(-3.76 -2.04)"/><path class="cls-6" d="M151.73,28.94l6.08-5.78h83.67v105H230.77l.09-22.09,1.14-.65,3.52-.7V46.44l-3.77-.22a1,1,0,0,0-.93,0l-.63-10.16-11.31-1.8-.11-1.1c-.14-1.26-.29-2.52-.46-4.09-2.13,0-3.93,0-5.74,0Z" transform="translate(-3.76 -2.04)"/><path class="cls-7" d="M164.66,16.83l6-5.68H254.3V116H243.83V94.12l1.07-.72,3.55-.63V34.45l-3.71-.19-1-.08V22.6l-12.52-1.26c-.33-1.39-.67-2.78-1-4.24-16.28,0-32.21,0-48.14,0C176.26,17.07,170.46,16.92,164.66,16.83Z" transform="translate(-3.76 -2.04)"/><path class="cls-8" d="M130.69,11.33,124,18a24.59,24.59,0,0,0-4.65-.89q-31.57-.09-63.13,0c-1.28,0-2.57.13-4.1.21l-.31,4.13H29.13V11.72a13.57,13.57,0,0,1,2.6-.47Q81.21,11.27,130.69,11.33Z" transform="translate(-3.76 -2.04)"/><path class="cls-9" d="M117.83,23.37l-6,5.83H40.05l-.55,3.85-.71,1.13H17V23.54c1.21-.11,2.33-.3,3.45-.3q47.94,0,95.88,0C116.84,23.25,117.33,23.33,117.83,23.37Z" transform="translate(-3.76 -2.04)"/><path class="cls-10" d="M39.5,33.05l.55-3.85h71.79L106.7,34l-1.94.18h-64Z" transform="translate(-3.76 -2.04)"/><path class="cls-11" d="M244.74,34.26l3.71.19V92.77l-3.55.63-1.11-1.19v-57Z" transform="translate(-3.76 -2.04)"/><path class="cls-12" d="M51.77,21.46l.31-4.13c1.53-.08,2.82-.21,4.1-.21q31.56,0,63.13,0A24.59,24.59,0,0,1,124,18l-5.06,3.64-61.17-.13C55.74,21.55,53.76,21.49,51.77,21.46Z" transform="translate(-3.76 -2.04)"/><path class="cls-13" d="M164.66,16.83c5.8.09,11.6.24,17.4.26,15.93,0,31.86,0,48.14,0,.35,1.46.69,2.85,1,4.24-9.43.07-18.87.18-28.31.21q-21.6.07-43.21.07Z" transform="translate(-3.76 -2.04)"/><path class="cls-14" d="M230.86,106.1l-.09,22.09-1.82,0q-.09-18.9-.16-37.81-.07-26.62-.11-53.24a2,2,0,0,0,0-.94l1.51-.14.63,10.16a1.43,1.43,0,0,0,.08.91v57.06a1.21,1.21,0,0,0,0,1A1.14,1.14,0,0,0,230.86,106.1Z" transform="translate(-3.76 -2.04)"/><path class="cls-15" d="M134.88,152c.32-3,.63-6,.94-8.95h8.25l.44.89Z" transform="translate(-3.76 -2.04)"/><path class="cls-16" d="M172.77,9.35l5-7.08L180.51,2V9.35Z" transform="translate(-3.76 -2.04)"/><path class="cls-17" d="M104.6,36.22l-5.78,5c-.35-1.64-.7-3.29-1.06-4.93Z" transform="translate(-3.76 -2.04)"/><path class="cls-17" d="M7.75,36.32l-4,3.88V36.32Z" transform="translate(-3.76 -2.04)"/><path class="cls-18" d="M243.79,92.21l1.11,1.19-1.07.72Z" transform="translate(-3.76 -2.04)"/><path class="cls-19" d="M39.5,33.05l1.26,1.16-2,0Z" transform="translate(-3.76 -2.04)"/><path class="cls-19" d="M104.76,34.21,106.7,34a7.13,7.13,0,0,1-.81.54Z" transform="translate(-3.76 -2.04)"/><path class="cls-18" d="M244.74,34.26l-1,.93,0-1Z" transform="translate(-3.76 -2.04)"/><path class="cls-20" d="M227.78,141.13l.94-.92Z" transform="translate(-3.76 -2.04)"/><path class="cls-20" d="M135.72,140.19l1,.91-1,.08A4.68,4.68,0,0,1,135.72,140.19Z" transform="translate(-3.76 -2.04)"/><path class="cls-21" d="M94.79,141.11h.94l-.47.06Z" transform="translate(-3.76 -2.04)"/><path class="cls-21" d="M3.76,140.2l1,.93Z" transform="translate(-3.76 -2.04)"/><path class="cls-11" d="M134.8,44.23l4-3H205c2.9,12.27,7.23,16.59,18.24,18.29v58.22c-9.74,1.66-16.65,6.88-17.92,18.51H135.6q0-6.66,0-13.32c13.23-7.45,20-18.78,20.22-33.94.18-15.5-7.13-26.76-20.22-34.57Zm41.11,44.43c1.27,7.94,6.06,11.41,13,10.52,4.68-.61,8.85-5.68,8.8-10.6s-4.29-9.79-9.08-10.36C182.32,77.46,178.18,80.85,175.91,88.66Z" transform="translate(-3.76 -2.04)"/><path class="cls-11" d="M98.7,41.43,96.89,44.2c-.34,3.65-.67,7.31-1,11a38,38,0,0,0-4.18,2.61c-10.75,8.76-16.12,20-15,33.94,1.13,13.39,7.09,23.89,19.13,30.51q.23,6.85.44,13.71L35,136.13H28c-2.39-4.56-3.79-9.46-6.94-12.6S13.2,119.33,9,117.24V60.69c4.41-2.38,9.29-3.84,12.42-7s4.17-7.89,6.28-12.23ZM55.87,88.48c-.06-6.37-4.3-10.4-10.8-10.28a10.52,10.52,0,1,0,.59,21C52.07,99.23,55.94,95.16,55.87,88.48Z" transform="translate(-3.76 -2.04)"/><path class="cls-3" d="M95.88,122.23c-12-6.62-18-17.12-19.13-30.51-1.17-14,4.2-25.18,15-33.94a38,38,0,0,1,4.18-2.61,18,18,0,0,1,.78,3.71q.07,29.82,0,59.64A18,18,0,0,1,95.88,122.23Z" transform="translate(-3.76 -2.04)"/><path class="cls-4" d="M135.58,54.45C148.67,62.26,156,73.52,155.8,89c-.17,15.16-7,26.49-20.22,33.94Z" transform="translate(-3.76 -2.04)"/><path class="cls-22" d="M230.19,36.1l-1.51.14a2.06,2.06,0,0,0-.89.07L150,36.18c-2,0-4-.11-6-.17l2.56-1.7,3.13-.12c3.14.08,6.28.21,9.42.21q29.28-.07,58.58-.19l1.12.09Z" transform="translate(-3.76 -2.04)"/><path class="cls-20" d="M227.79,36.31a2.06,2.06,0,0,1,.89-.07,2,2,0,0,1,0,.94Z" transform="translate(-3.76 -2.04)"/><path class="cls-10" d="M217.76,34.21q-29.3.1-58.58.19c-3.14,0-6.28-.13-9.42-.21L149.69,31l2-2.06,60.84.17c1.81,0,3.61,0,5.74,0,.17,1.57.32,2.83.46,4.09Z" transform="translate(-3.76 -2.04)"/><path class="cls-19" d="M149.69,31l.07,3.19-3.13.12Z" transform="translate(-3.76 -2.04)"/><path class="cls-10" d="M230.9,104.23V47.17l.85-1,3.77.22v58.31l-3.52.7-.25-.26Z" transform="translate(-3.76 -2.04)"/><path class="cls-10" d="M230.86,106.1a1.14,1.14,0,0,1,.06-.92h.83l.25.26Z" transform="translate(-3.76 -2.04)"/><path class="cls-18" d="M231.75,46.22l-.85,1a1.43,1.43,0,0,1-.08-.91A1,1,0,0,1,231.75,46.22Z" transform="translate(-3.76 -2.04)"/><path class="cls-19" d="M217.76,34.21l1-1,.11,1.1Z" transform="translate(-3.76 -2.04)"/><path class="cls-18" d="M231.75,105.19h-.83a1.21,1.21,0,0,1,0-1Z" transform="translate(-3.76 -2.04)"/><path class="cls-23" d="M175.91,88.66c2.27-7.81,6.41-11.2,12.76-10.44,4.79.57,9,5.41,9.08,10.36s-4.12,10-8.8,10.6C182,100.07,177.18,96.6,175.91,88.66Z" transform="translate(-3.76 -2.04)"/><path class="cls-23" d="M55.87,88.48c.07,6.68-3.8,10.75-10.21,10.75a10.52,10.52,0,1,1-.59-21C51.57,78.08,55.81,82.11,55.87,88.48Z" transform="translate(-3.76 -2.04)"/><path class="cls-2" d="M96,55" transform="translate(-3.76 -2.04)"/></svg>