<svg id="Layer_1" data-name="Layer 1" xmlns="http://www.w3.org/2000/svg" viewBox="0 0 42.27 38.05"><title>tel</title><path d="M23.81,34l-4.55.89a2.74,2.74,0,0,1-.49,0h0a2,2,0,0,1-1.87-1.35L11.23,15.9v-.09a1.72,1.72,0,0,1,.23-1.27,2.05,2.05,0,0,1,1.3-.89l5.69-1.12a.39.39,0,0,0,.29-.17.23.23,0,0,0,0-.19L17,4.86c0-.1,0-.17-.41-.2C15,4.78,13.1,5,12.9,5a12,12,0,0,0-7.69,5.33A9.74,9.74,0,0,0,3.79,18l0,.11,4.1,16.18c1.26,5,6.12,8.45,11.82,8.46a12.82,12.82,0,0,0,2.55-.25l3.64-.69a.45.45,0,0,0,.27-.17.24.24,0,0,0,0-.2l-1.9-7.08a.4.4,0,0,0-.42-.27m-2,7a11.47,11.47,0,0,1-2.17.21c-4.74,0-9.06-3-10.15-7.31L5.49,17.75A8.59,8.59,0,0,1,6.6,11,10.44,10.44,0,0,1,13.34,6.5a10.61,10.61,0,0,1,1.13-.17l1-.1,1.33,5.14-4.4.86a3.76,3.76,0,0,0-2.46,1.61,3,3,0,0,0-.4,2.33l.05.2L15.18,34a3.75,3.75,0,0,0,3.61,2.43,3.71,3.71,0,0,0,.81-.08l3.34-.64,1.34,4.87Z" transform="translate(-3.53 -4.66)"/><path d="M29.41,15.62l-.75,1.07a8.29,8.29,0,0,1,3.18,11l1.16.67C35.46,23.89,33.94,18.48,29.41,15.62Z" transform="translate(-3.53 -4.66)"/><path d="M32.88,11.73l-.54-.3-.75,1.08.55.29c6.64,3.74,8.67,11.59,4.55,17.58l1.19.67C42.4,24.47,40.17,15.84,32.88,11.73Z" transform="translate(-3.53 -4.66)"/><path d="M42.82,32.62c5.72-8.22,3-19.06-6.18-24.22-.53-.3-1.08-.57-1.64-.82l-.72,1.05c.56.25,1.1.52,1.64.82,8.48,4.79,11,14.85,5.71,22.48q-.32.45-.66.87l1.19.67A8.31,8.31,0,0,0,42.82,32.62Z" transform="translate(-3.53 -4.66)"/></svg>