<svg id="Layer_2" data-name="Layer 2" xmlns="http://www.w3.org/2000/svg" viewBox="0 0 320.32 317.66"><defs><style>.cls-1{fill:#fff;}</style></defs><title>tel_w</title><path class="cls-1" d="M159.14,31.14l50.15,50.15a8,8,0,0,1-.06,11.37l-35.34,34.65a13,13,0,0,0,.4,18.95L303.94,262.85a13,13,0,0,0,17.78-.36l28.72-28.06a8,8,0,0,1,11.15,0l49.59,48a8,8,0,0,1,.13,11.38l-23,22.25a108,108,0,0,1-151.53-1.18L124.93,202.93a108,108,0,0,1,9-160.78l14.45-11.53A8,8,0,0,1,159.14,31.14Z" transform="translate(-93.3 -28.79)"/></svg>