<svg id="Layer_1" data-name="Layer 1" xmlns="http://www.w3.org/2000/svg" viewBox="0 0 107.85 142.56"><defs><style>.cls-1{fill:#ed9520;}.cls-2{fill:#e08820;}.cls-3{fill:#c6621e;}.cls-4{fill:#dd8000;}.cls-5{fill:#cf7a41;}.cls-6{fill:#ec8f00;}.cls-7{fill:#e66e01;}.cls-8{fill:#019344;}.cls-9{fill:#39b44a;}.cls-10{fill:#21b54d;}.cls-11{fill:#e56f1f;}</style></defs><title>wallet</title><path class="cls-1" d="M93.9,60.51c1.06,1.1,2.61,1.83,2.87,3.58-1.74,7.19-.32,14.5-.8,21.74l-20.88.11c-6.38,0-8,1.64-8.08,7.8,0,5,0,10,0,14.93,0,5.5,1.88,7.28,7.56,7.31,7.12,0,14.25,0,21.38,0,0,3,0,6,0,9-10,0-20,.22-29.92-.07-12.7-.37-24.11-4.62-33.13-13.68C18.5,96.73,14.87,79.47,21.09,60.07L26,60l6.1-.11H42l1,0H67l1-.06h9.86l8.14,0,1.92,0Z" transform="translate(-5.1 -2.62)"/><path class="cls-2" d="M21.09,60.07c-6.22,19.4-2.59,36.66,11.83,51.14,9,9.06,20.43,13.31,33.13,13.68C76,125.18,86,125,96,125l.09,17.49A1.62,1.62,0,0,1,94.5,144H7.56a3.93,3.93,0,0,1-2.22-3.17c1-1.11.73-2.5.73-3.8q0-39.1,0-78.21c0-1.3.3-2.69-.81-3.76.27-3,2.53-4,4.88-4.91.75,1.06,1.9.79,2.94.87,0,.68,0,1.36,0,2C13.47,58.65,14.83,59.84,21.09,60.07Z" transform="translate(-5.1 -2.62)"/><path class="cls-3" d="M96,116c-7.13,0-14.26,0-21.38,0-5.68,0-7.51-1.81-7.56-7.31,0-5,0-10,0-14.93,0-6.16,1.7-7.76,8.08-7.8L96,85.83l1.26,0A4.44,4.44,0,0,1,100,88l0,26,0,0c-.9.09-1.64.39-1.76,1.43l-1,.68ZM88,102A4.05,4.05,0,0,0,84,98c-2.7-.23-4.63,1-4.84,3.72s1.43,4.94,4.26,5C85.77,106.8,87.88,105.59,88,102Z" transform="translate(-5.1 -2.62)"/><path class="cls-4" d="M5.26,55.07c1.11,1.07.81,2.46.81,3.76q0,39.11,0,78.21c0,1.3.31,2.69-.73,3.8-.08-19.62-.2-39.23-.24-58.84C5.08,73,5.2,64.05,5.26,55.07Z" transform="translate(-5.1 -2.62)"/><path class="cls-4" d="M7.56,144H94.5c-1.45,1.6-3.39,1.09-5.14,1.09q-38.59,0-77.17,0C10.59,145.09,8.81,145.6,7.56,144Z" transform="translate(-5.1 -2.62)"/><path class="cls-5" d="M100,113.91l0-26c1.44.91,1.71,2.43,1.73,3.88.07,6.07.08,12.15,0,18.23C101.68,111.49,101.4,113,100,113.91Z" transform="translate(-5.1 -2.62)"/><path class="cls-4" d="M96,116l1.23,0c0,7.1,0,14.2,0,21.29,0,1.75.51,3.68-1.09,5.12L96,125C96,122,96,119,96,116Z" transform="translate(-5.1 -2.62)"/><path class="cls-6" d="M97.23,85.81l-1.26,0c.48-7.24-.94-14.55.8-21.74C97.71,71.31,96.86,78.57,97.23,85.81Z" transform="translate(-5.1 -2.62)"/><path class="cls-7" d="M32,50c-.25.33-.75.67-1,1-5.66,0-12.27,0-17.92,0-1-.09-2.19.18-2.94-.88Z" transform="translate(-5.1 -2.62)"/><path class="cls-5" d="M98.17,115.36c.12-1,.86-1.34,1.76-1.43A2.17,2.17,0,0,1,98.17,115.36Z" transform="translate(-5.1 -2.62)"/><path class="cls-8" d="M32.14,59.87c3.24-2.56,3.68-6.55,5-10,4.8-12.36,9.47-24.77,14.1-37.19,1.36-3.63,3.67-4.29,7.07-3,9.59,3.7,19.2,7.32,28.81,11,3.3,1.25,4,3.33,2.7,6.64C86.2,36.34,82.78,45.5,79.17,54.59a12.79,12.79,0,0,0-1.26,5.27H68.05c0-.28,0-.57,0-.85A12.79,12.79,0,0,0,55.87,47c-7.41-.33-12.53,4.12-13.78,12,0,.29-.06.59-.07.88Z" transform="translate(-5.1 -2.62)"/><path class="cls-9" d="M42.09,59c1.25-7.85,6.37-12.3,13.78-12A12.79,12.79,0,0,1,68,59l-1,.91H43Z" transform="translate(-5.1 -2.62)"/><path class="cls-3" d="M30,53c-.55,2.49-2,4-3,7-1.65,0-4.26,0-5.91.07-6.26-.23-7.62-1.42-8-7Z" transform="translate(-5.1 -2.62)"/><path class="cls-8" d="M88,58.05c0,.62-.05,1.24-.07,1.87l-1.92,0L88,58Z" transform="translate(-5.1 -2.62)"/><path class="cls-10" d="M42.09,59l.92.92-1,0C42,59.59,42.06,59.29,42.09,59Z" transform="translate(-5.1 -2.62)"/><path class="cls-10" d="M67,59.92,68,59c0,.28,0,.57,0,.85Z" transform="translate(-5.1 -2.62)"/><path class="cls-11" d="M31,53l-17.88.07c0-.68,0-1.36,0-2L31,51C30.6,51.65,31.4,52.35,31,53Z" transform="translate(-5.1 -2.62)"/><path class="cls-9" d="M30.81,50c5.86-12.46,10-25.59,15.16-38.33a53.65,53.65,0,0,0,2-5.11c1.17-4,3.58-4.84,7.19-3.1,2,1,3.67,1.38,5.9-.12s4.31.83,6.22,2,3.4,2.59,5.42,0c1.31-1.7,3.25-1.21,4.87.13Q94.28,19.31,111,33.15c2.48,2,2.45,4,.44,6.34-5.91,7-11.73,14-17.58,21L88,59.92c0-.63,0-1.25.07-1.87a2,2,0,0,0,1-2c7.09-4.78,11.33-12.1,16.5-18.58,1-1.23,0-2.54-1.08-3.42-1.67-1.39-2.45.23-3,1.22C97.21,42.16,93.09,49.07,88.93,56a2.15,2.15,0,0,0-1,2l-1.9,1.93-8.14,0a12.79,12.79,0,0,1,1.26-5.27c3.61-9.09,7-18.25,10.68-27.32,1.33-3.31.6-5.39-2.7-6.64-9.61-3.64-19.22-7.26-28.81-11-3.4-1.32-5.71-.66-7.07,3C46.64,25.06,42,37.47,37.17,49.83c-1.35,3.49-1.79,7.48-5,10L26,60M92,39.07c1.86-3.21,6.11-5.54,3.68-10.3C94.11,32.06,91.7,35,92,39c-.25.36-.5.72-.72,1.09a3.79,3.79,0,0,0,.35.27Z" transform="translate(-5.1 -2.62)"/><path class="cls-8" d="M88.93,56c4.16-6.9,8.28-13.81,12.51-20.66.6-1,1.38-2.61,3-1.22,1.07.88,2.07,2.19,1.08,3.42-5.17,6.48-9.41,13.8-16.5,18.58Z" transform="translate(-5.1 -2.62)"/><path class="cls-8" d="M92,39c-.25-4,2.16-6.94,3.75-10.23,2.43,4.76-1.82,7.09-3.68,10.3Z" transform="translate(-5.1 -2.62)"/><path class="cls-8" d="M92,39.07l-.44,1.29a3.79,3.79,0,0,1-.35-.27c.22-.37.47-.73.72-1.09Z" transform="translate(-5.1 -2.62)"/><path class="cls-8" d="M88,58a2.15,2.15,0,0,1,1-2l.14.12a2,2,0,0,1-1,2Z" transform="translate(-5.1 -2.62)"/><path class="cls-1" d="M88,102c-.16,3.64-2.27,4.85-4.64,4.78-2.83-.08-4.49-2.19-4.26-5S81.28,97.76,84,98A4.05,4.05,0,0,1,88,102Z" transform="translate(-5.1 -2.62)"/></svg>